<svg width="36" height="36" viewBox="0 0 36 36" fill="none" xmlns="http://www.w3.org/2000/svg">
<g filter="url(#filter0_b_1553_453)">
<path fill-rule="evenodd" clip-rule="evenodd" d="M15.8427 0.0967741C12.512 0.500698 9.30704 1.85433 6.67487 3.96876C5.91123 4.58228 4.59231 5.90454 3.98034 6.67012C-0.496704 12.2715 -1.26435 19.9557 2.02006 26.294C2.8916 27.9759 3.91264 29.3699 5.26847 30.7292C8.67957 34.149 13.1405 36 17.9708 36C22.1131 36 26.0315 34.6196 29.2668 32.0206C30.0304 31.4071 31.3493 30.0848 31.9613 29.3193C34.0571 26.6972 35.47 23.3487 35.7971 20.2289C35.8387 19.8318 35.9016 19.4519 35.9368 19.3848C36.0126 19.2401 36.0245 16.4705 35.949 16.5462C35.9205 16.5747 35.86 16.2608 35.8144 15.8486C35.456 12.6061 34.0733 9.31261 31.9613 6.67012C31.3493 5.90454 30.0304 4.58228 29.2668 3.96876C26.6016 1.82782 23.4155 0.492047 20.0254 0.0944531C18.9433 -0.0324281 16.8991 -0.0313027 15.8427 0.0967741ZM14.0746 10.15C13.077 10.3816 12.446 10.5769 11.486 10.9513L10.6487 11.2779L10.2381 11.9109C9.2587 13.421 8.35047 15.5076 7.90744 17.2655C7.55105 18.6795 7.34542 20.8583 7.42238 22.4055L7.46861 23.3347L8.21219 23.8229C9.21436 24.4806 9.92939 24.8747 10.8439 25.2735C11.4299 25.5291 12.722 26.0127 12.8187 26.0127C12.842 26.0127 13.529 24.9327 13.7277 24.5838C13.8345 24.3961 13.8929 24.2209 13.8586 24.1908C13.8245 24.1611 13.6229 24.0651 13.4107 23.9777C13.1985 23.8903 12.8237 23.7074 12.5779 23.5712L12.131 23.3236L12.3324 23.1586C12.4431 23.0677 12.5541 22.9923 12.579 22.9909C12.6038 22.9895 12.9474 23.1168 13.3426 23.2739C14.8902 23.8889 16.2226 24.1375 17.9708 24.1375C19.7191 24.1375 21.0514 23.8889 22.5991 23.2739C22.9942 23.1168 23.3379 22.9895 23.3627 22.9909C23.3875 22.9923 23.4985 23.0677 23.6093 23.1586L23.8106 23.3236L23.3638 23.5712C23.1179 23.7074 22.7432 23.8903 22.5309 23.9777C22.0182 24.1889 22.009 24.201 22.1485 24.4748C22.2657 24.7049 23.0925 26.0127 23.1207 26.0127C23.1285 26.0127 23.4488 25.9052 23.8326 25.7738C25.1867 25.3103 26.355 24.7252 27.733 23.8206L28.4801 23.3302L28.5306 22.3166C28.7067 18.7857 27.7377 15.1648 25.7801 12.0384C25.2758 11.2331 25.3697 11.3009 24.0744 10.8073C23.3777 10.5418 21.8486 10.116 21.2313 10.0156L20.9489 9.96966L20.6705 10.5421L20.3921 11.1145L20.111 11.0679C19.1779 10.9133 16.5969 10.9142 15.7708 11.0697L15.5345 11.1141L15.2684 10.5454C15.0945 10.1738 14.9635 9.97838 14.8904 9.98162C14.8291 9.98429 14.4619 10.0601 14.0746 10.15ZM0.0406168 17.9947C0.0406168 18.7877 0.0508595 19.1121 0.0633472 18.7156C0.0758349 18.3191 0.0758349 17.6702 0.0633472 17.2738C0.0508595 16.8773 0.0406168 17.2017 0.0406168 17.9947ZM13.8438 16.7476C13.5412 16.8447 12.9488 17.3803 12.7825 17.7072C12.3145 18.6268 12.5138 19.8049 13.2468 20.4518C14.0098 21.1251 15.0232 21.0905 15.7454 20.3664C16.1792 19.9315 16.316 19.5505 16.3194 18.7684C16.322 18.1563 16.3047 18.0685 16.114 17.7233C15.6403 16.8659 14.7148 16.4682 13.8438 16.7476ZM20.7259 16.8376C19.4821 17.4539 19.1839 19.3203 20.1675 20.3328C21.1329 21.3267 22.5395 21.0672 23.1723 19.7785C23.6012 18.9051 23.4374 17.8481 22.7734 17.2047C22.3974 16.8404 22.0803 16.704 21.5488 16.6781C21.1714 16.6597 21.0295 16.6872 20.7259 16.8376Z" fill="white" fill-opacity="0.5"/>
<path d="M34.9858 16.8585C34.9794 16.841 34.9751 16.8277 34.9725 16.82L34.9717 16.8174C34.9413 16.7242 34.9203 16.6249 34.9062 16.5522C34.8751 16.3908 34.8451 16.1809 34.8205 15.9586L34.8204 15.9585C34.4836 12.9114 33.1786 9.79486 31.1802 7.29451C30.614 6.58614 29.3469 5.31592 28.6405 4.74833C26.1216 2.72488 23.1121 1.46333 19.909 1.08765L34.9858 16.8585ZM34.9858 16.8585C34.9873 16.8903 34.9888 16.9276 34.9902 16.9705C34.9979 17.2044 35.0011 17.5344 34.9997 17.8785C34.9982 18.222 34.9921 18.5675 34.982 18.8316C34.977 18.9634 34.9714 19.065 34.9659 19.1326C34.9468 19.1949 34.9359 19.2443 34.9315 19.2646C34.931 19.2669 34.9306 19.2688 34.9302 19.2703C34.9131 19.3468 34.8971 19.4332 34.8828 19.5198C34.8538 19.695 34.8251 19.9091 34.8025 20.1245L34.8025 20.1246C34.4968 23.0407 33.1653 26.2113 31.1802 28.6949C30.6139 29.4033 29.3469 30.6735 28.6405 31.241C25.5824 33.6976 21.8848 35 17.9708 35C13.4061 35 9.19997 33.2547 5.97649 30.023C4.69183 28.7351 3.73179 27.4238 2.90793 25.8339C1.8005 23.6968 1.1807 21.3972 1.03413 19.0827C1.04751 19.0173 1.05212 18.9602 1.05298 18.9494L1.05309 18.9481C1.055 18.9255 1.05635 18.9032 1.05735 18.8845C1.0594 18.8463 1.0612 18.7996 1.06285 18.7471C1.076 18.3296 1.076 17.6597 1.06285 17.2423C1.0612 17.1898 1.0594 17.1431 1.05735 17.1049C1.05635 17.0862 1.055 17.0639 1.05309 17.0412L1.05298 17.04C1.05214 17.0295 1.04772 16.9746 1.03503 16.9111C1.25528 13.4748 2.51325 10.1073 4.76149 7.29447C5.32772 6.5861 6.59471 5.31592 7.30119 4.74833C9.78888 2.74996 12.8188 1.47082 15.963 1.0895L34.9858 16.8585ZM13.8485 9.17591L13.8485 9.17589C14.0487 9.12942 14.2454 9.08619 14.4026 9.05375C14.4806 9.03764 14.5531 9.02331 14.6134 9.0124L14.6188 9.01143C14.6546 9.00489 14.7551 8.98656 14.8469 8.98257M13.8485 9.17591L14.8904 9.98162M13.8485 9.17591C12.8039 9.41842 12.1271 9.62795 11.1227 10.0196L11.1226 10.0197L10.2853 10.3462L9.98508 10.4633L9.80971 10.7337L9.39916 11.3667C8.35956 12.9696 7.40741 15.1575 6.93776 17.0211C6.5557 18.537 6.34204 20.8152 6.42362 22.4552L6.46985 23.3844L6.4951 23.8919L6.91985 24.1707L7.66343 24.6588L7.66349 24.6589C8.70389 25.3417 9.46873 25.7647 10.4441 26.1901C10.7611 26.3283 11.2497 26.5203 11.6643 26.6755C11.8731 26.7536 12.0715 26.8256 12.2275 26.8791C12.3043 26.9054 12.379 26.9301 12.4427 26.9492C12.4738 26.9585 12.5123 26.9696 12.5522 26.9792L12.5536 26.9796C12.5682 26.9833 12.6837 27.0127 12.8187 27.0127C13.0419 27.0127 13.2045 26.938 13.2667 26.9069C13.3425 26.869 13.3976 26.8293 13.4266 26.8071C13.4851 26.7625 13.5259 26.7211 13.5416 26.7049C13.5774 26.6678 13.6037 26.635 13.6134 26.6228C13.6373 26.5927 13.6587 26.5629 13.6724 26.5435C13.7027 26.5007 13.7389 26.4471 13.7759 26.3913C13.8517 26.2771 13.9497 26.1253 14.0512 25.9658C14.2502 25.6529 14.4838 25.2768 14.5967 25.0786L13.7277 24.5838L14.5967 25.0786C14.6505 24.984 14.7018 24.8817 14.7447 24.7781M13.8485 9.17591L14.7447 24.7781M14.8469 8.98257L14.8904 9.98162M14.8469 8.98257C14.8467 8.98258 14.8464 8.98259 14.8462 8.9826L14.8904 9.98162M14.8469 8.98257C15.2937 8.96309 15.5779 9.22856 15.6396 9.28637C15.7444 9.38461 15.8218 9.49102 15.8722 9.56619C15.9596 9.69656 16.0441 9.8527 16.1244 10.0175M14.8904 9.98162C14.9635 9.97838 15.0945 10.1738 15.2684 10.5454L15.5345 11.1141M16.1244 10.0175C15.9179 10.036 15.7344 10.059 15.5859 10.0869L15.3499 10.1312L15.4148 10.4768L15.5345 11.1141M16.1244 10.0175C16.6354 9.97159 17.2877 9.95275 17.9004 9.95251C18.5594 9.95225 19.2656 9.97362 19.8104 10.0241M16.1244 10.0175C16.1412 10.0518 16.1577 10.0865 16.1741 10.1215L19.8104 10.0241M15.5345 11.1141L15.7594 11.0088M15.5345 11.1141L15.7594 11.0088M15.7594 11.0088L15.7708 11.0697L15.7594 11.0088M15.7594 11.0088L15.7594 11.0088M15.7594 11.0088L15.6395 10.3717L15.7594 11.0088ZM15.7594 11.0088L16.4402 10.6901L16.1741 10.1215L15.6397 10.3716L15.7594 11.0088ZM19.8104 10.0241L19.7712 10.1048L20.2334 10.3295L19.7712 10.1048L19.4928 10.6772L20.1248 10.9846L20.3921 11.1145M19.8104 10.0241L20.111 11.0679L20.3921 11.1145M19.8104 10.0241L20.0496 9.53233L20.375 8.86321L21.1094 8.98263L21.3918 9.02855L21.3919 9.02857C22.0872 9.1417 23.6822 9.58772 24.4304 9.8728L24.4304 9.87281C24.4901 9.89555 24.548 9.91752 24.604 9.93878C24.8386 10.0279 25.0399 10.1043 25.2016 10.1718C25.4038 10.2562 25.614 10.3542 25.8092 10.4951C26.1627 10.7503 26.376 11.0981 26.5563 11.3921C26.5806 11.4317 26.6043 11.4704 26.6277 11.5077L26.6277 11.5077C28.6888 14.7995 29.7161 18.6219 29.5293 22.3664C29.5293 22.3664 29.5293 22.3664 29.5293 22.3664L29.4788 23.3799L29.4535 23.8873L29.0288 24.1661L28.2818 24.6566C26.844 25.6004 25.6008 26.2255 24.1565 26.7199L24.1565 26.7199C23.9632 26.7861 23.7852 26.8465 23.6537 26.8906C23.6184 26.9024 23.5859 26.9133 23.5571 26.9229C23.5325 26.931 23.5106 26.9382 23.4918 26.9444C23.4719 26.9509 23.4521 26.9573 23.4352 26.9625C23.4277 26.9649 23.4148 26.9689 23.4004 26.973C23.3942 26.9747 23.3791 26.979 23.3603 26.9836C23.3514 26.9858 23.3326 26.9903 23.3087 26.9949C23.3053 26.9955 23.2237 27.0127 23.1207 27.0127C22.8978 27.0127 22.7354 26.9382 22.6727 26.9069C22.5966 26.8689 22.5413 26.829 22.5121 26.8067C22.4532 26.7618 22.4122 26.7199 22.3962 26.7034C22.3598 26.6657 22.3329 26.632 22.3226 26.6189C22.2973 26.587 22.2741 26.5547 22.2584 26.5323C22.2239 26.4834 22.1821 26.4212 22.1388 26.3556C22.0505 26.2219 21.937 26.0452 21.8227 25.8644C21.6095 25.5271 21.3424 25.0954 21.2575 24.9289L21.2575 24.9288C21.2561 24.926 21.2543 24.9226 21.2522 24.9185C21.2391 24.8932 21.2136 24.8438 21.1862 24.7807C20.1734 25.029 19.1544 25.1375 17.9708 25.1375C16.783 25.1375 15.761 25.0283 14.7447 24.7781M19.8104 10.0241C19.9837 10.0402 20.1406 10.0592 20.2745 10.0814L20.2746 10.0814L20.5557 10.128L20.5008 10.4596M20.3921 11.1145L20.5008 10.4596M20.3921 11.1145L20.6705 10.5421M14.7447 24.7781L20.6705 10.5421M20.5008 10.4596L20.6705 10.5421M20.5008 10.4596L20.6705 10.5421M13.6728 18.1625C13.6716 18.1649 13.6709 18.1661 13.671 18.1661M13.6728 18.1625C13.6731 18.1619 13.6734 18.1613 13.6737 18.1607L13.6737 18.1607C13.6734 18.1613 13.6731 18.1619 13.6728 18.1625ZM13.6728 18.1625C13.3967 18.7072 13.5439 19.3803 13.9084 19.702C14.2719 20.0227 14.6854 20.0131 15.0374 19.6602C15.1822 19.515 15.2267 19.4318 15.2527 19.3596C15.2856 19.2678 15.3179 19.1079 15.3194 18.7641C15.32 18.6115 15.3192 18.512 15.3161 18.4378C15.3135 18.3777 15.31 18.3508 15.3085 18.3419L13.671 18.1661M13.671 18.1661C13.6713 18.1663 13.6884 18.1383 13.7355 18.0834M13.671 18.1661L13.7355 18.0834M13.7355 18.0834C13.7879 18.0221 13.8566 17.9518 13.9327 17.883M13.7355 18.0834L13.9327 17.883M13.9327 17.883C14.0092 17.8138 14.0817 17.7567 14.1388 17.7175M13.9327 17.883L14.1388 17.7175M14.1388 17.7175C14.1578 17.7045 14.1718 17.6958 14.1808 17.6904L14.1388 17.7175ZM34.9769 16.7282C34.9768 16.7272 34.9771 16.7291 34.9777 16.7346C34.9772 16.7311 34.977 16.7289 34.9769 16.7282ZM35.051 18.9208C35.0495 18.9236 35.0481 18.9264 35.0466 18.9291C35.0481 18.9264 35.0495 18.9236 35.051 18.9208ZM22.29 23.3929C22.3922 23.3548 22.4951 23.3152 22.5991 23.2739L22.29 23.3929ZM21.1699 17.7337L21.17 17.7336C21.2309 17.7034 21.2644 17.6891 21.2837 17.6818C21.2925 17.6785 21.2971 17.6771 21.2987 17.6766L21.2999 17.6763L21.3 17.6763L21.3014 17.676L21.3067 17.6754C21.3089 17.6752 21.3118 17.6749 21.3157 17.6746C21.3209 17.6742 21.3277 17.6739 21.3365 17.6736C21.369 17.6725 21.4183 17.6729 21.5 17.6769L21.5001 17.6769C21.6899 17.6862 21.7752 17.712 21.8244 17.7332C21.8726 17.7539 21.9467 17.7961 22.0775 17.9228L22.0775 17.9229C22.4084 18.2435 22.5262 18.8256 22.2747 19.3378L23.1723 19.7785L22.2747 19.3378C22.0777 19.7389 21.8113 19.8917 21.6132 19.9282C21.4225 19.9634 21.1583 19.9176 20.8847 19.6361C20.6479 19.3922 20.5331 19.0064 20.5989 18.5944C20.6648 18.1817 20.89 17.8724 21.1699 17.7337ZM15.9631 1.0895C16.9389 0.97119 18.9036 0.969772 19.9089 1.08765L15.9631 1.0895ZM14.1493 17.6998C14.1495 17.6997 14.1498 17.6996 14.1501 17.6995C14.1498 17.6996 14.1495 17.6997 14.1492 17.6998L14.1493 17.6998Z" stroke="url(#paint0_linear_1553_453)" stroke-width="2"/>
</g>
<defs>
<filter id="filter0_b_1553_453" x="-20" y="-20" width="76" height="76" filterUnits="userSpaceOnUse" color-interpolation-filters="sRGB">
<feFlood flood-opacity="0" result="BackgroundImageFix"/>
<feGaussianBlur in="BackgroundImageFix" stdDeviation="10"/>
<feComposite in2="SourceAlpha" operator="in" result="effect1_backgroundBlur_1553_453"/>
<feBlend mode="normal" in="SourceGraphic" in2="effect1_backgroundBlur_1553_453" result="shape"/>
</filter>
<linearGradient id="paint0_linear_1553_453" x1="4.875" y1="6.75" x2="29.25" y2="31.125" gradientUnits="userSpaceOnUse">
<stop stop-color="#3A0184" stop-opacity="0.5"/>
<stop offset="1" stop-color="white" stop-opacity="0.3"/>
</linearGradient>
</defs>
</svg>
