<svg width="36" height="36" viewBox="0 0 36 36" fill="none" xmlns="http://www.w3.org/2000/svg">
<g filter="url(#filter0_b_1553_453)">
<mask id="path-1-inside-1_1553_453" fill="white">
<path fill-rule="evenodd" clip-rule="evenodd" d="M15.8427 0.0967741C12.512 0.500698 9.30704 1.85433 6.67487 3.96876C5.91123 4.58228 4.59231 5.90454 3.98034 6.67012C-0.496705 12.2715 -1.26435 19.9557 2.02006 26.294C2.8916 27.9759 3.91264 29.3699 5.26847 30.7292C8.67957 34.149 13.1405 36 17.9708 36C22.1131 36 26.0315 34.6196 29.2668 32.0206C30.0304 31.4071 31.3493 30.0848 31.9613 29.3193C34.0571 26.6972 35.47 23.3487 35.7971 20.2289C35.8387 19.8318 35.9016 19.4519 35.9368 19.3848C36.0126 19.2401 36.0245 16.4705 35.949 16.5462C35.9205 16.5747 35.86 16.2608 35.8144 15.8486C35.456 12.6061 34.0733 9.31261 31.9613 6.67012C31.3493 5.90454 30.0304 4.58228 29.2668 3.96876C26.6016 1.82782 23.4155 0.492047 20.0254 0.0944531C18.9433 -0.0324281 16.8991 -0.0313027 15.8427 0.0967741ZM14.0746 10.15C13.077 10.3816 12.446 10.5769 11.486 10.9513L10.6487 11.2779L10.2381 11.9109C9.2587 13.421 8.35047 15.5076 7.90744 17.2655C7.55105 18.6795 7.34542 20.8583 7.42238 22.4055L7.46861 23.3347L8.21219 23.8229C9.21436 24.4806 9.92939 24.8747 10.8439 25.2735C11.4299 25.5291 12.722 26.0127 12.8187 26.0127C12.842 26.0127 13.529 24.9327 13.7277 24.5838C13.8345 24.3961 13.8929 24.2209 13.8586 24.1908C13.8245 24.1611 13.6229 24.0651 13.4107 23.9777C13.1985 23.8903 12.8237 23.7074 12.5779 23.5712L12.131 23.3236L12.3324 23.1586C12.4431 23.0677 12.5541 22.9923 12.579 22.9909C12.6038 22.9895 12.9474 23.1168 13.3426 23.2739C14.8902 23.8889 16.2226 24.1375 17.9708 24.1375C19.7191 24.1375 21.0514 23.8889 22.5991 23.2739C22.9942 23.1168 23.3379 22.9895 23.3627 22.9909C23.3875 22.9923 23.4985 23.0677 23.6093 23.1586L23.8106 23.3236L23.3638 23.5712C23.1179 23.7074 22.7432 23.8903 22.5309 23.9777C22.0182 24.1889 22.009 24.201 22.1485 24.4748C22.2657 24.7049 23.0925 26.0127 23.1207 26.0127C23.1285 26.0127 23.4488 25.9052 23.8326 25.7738C25.1867 25.3103 26.355 24.7252 27.733 23.8206L28.4801 23.3302L28.5306 22.3166C28.7067 18.7857 27.7377 15.1648 25.7801 12.0384C25.2758 11.2331 25.3697 11.3009 24.0744 10.8073C23.3777 10.5418 21.8486 10.116 21.2313 10.0156L20.9489 9.96966L20.6705 10.5421L20.3921 11.1145L20.111 11.0679C19.1779 10.9133 16.5969 10.9142 15.7708 11.0697L15.5345 11.1141L15.2684 10.5454C15.0945 10.1738 14.9635 9.97839 14.8904 9.98162C14.8291 9.98429 14.4619 10.0601 14.0746 10.15ZM0.0406168 17.9947C0.0406168 18.7877 0.0508595 19.1121 0.0633472 18.7156C0.0758349 18.3191 0.0758349 17.6702 0.0633472 17.2738C0.0508595 16.8773 0.0406168 17.2017 0.0406168 17.9947ZM13.8438 16.7476C13.5412 16.8447 12.9488 17.3803 12.7825 17.7072C12.3145 18.6268 12.5138 19.8049 13.2468 20.4518C14.0098 21.1251 15.0232 21.0905 15.7454 20.3664C16.1792 19.9315 16.316 19.5505 16.3194 18.7684C16.322 18.1563 16.3047 18.0685 16.114 17.7233C15.6403 16.8659 14.7148 16.4682 13.8438 16.7476ZM20.7259 16.8376C19.4821 17.4539 19.1839 19.3203 20.1675 20.3328C21.1329 21.3267 22.5395 21.0672 23.1723 19.7785C23.6012 18.9051 23.4374 17.8481 22.7734 17.2047C22.3974 16.8404 22.0803 16.704 21.5488 16.6781C21.1714 16.6597 21.0295 16.6872 20.7259 16.8376Z"/>
</mask>
<path fill-rule="evenodd" clip-rule="evenodd" d="M15.8427 0.0967741C12.512 0.500698 9.30704 1.85433 6.67487 3.96876C5.91123 4.58228 4.59231 5.90454 3.98034 6.67012C-0.496705 12.2715 -1.26435 19.9557 2.02006 26.294C2.8916 27.9759 3.91264 29.3699 5.26847 30.7292C8.67957 34.149 13.1405 36 17.9708 36C22.1131 36 26.0315 34.6196 29.2668 32.0206C30.0304 31.4071 31.3493 30.0848 31.9613 29.3193C34.0571 26.6972 35.47 23.3487 35.7971 20.2289C35.8387 19.8318 35.9016 19.4519 35.9368 19.3848C36.0126 19.2401 36.0245 16.4705 35.949 16.5462C35.9205 16.5747 35.86 16.2608 35.8144 15.8486C35.456 12.6061 34.0733 9.31261 31.9613 6.67012C31.3493 5.90454 30.0304 4.58228 29.2668 3.96876C26.6016 1.82782 23.4155 0.492047 20.0254 0.0944531C18.9433 -0.0324281 16.8991 -0.0313027 15.8427 0.0967741ZM14.0746 10.15C13.077 10.3816 12.446 10.5769 11.486 10.9513L10.6487 11.2779L10.2381 11.9109C9.2587 13.421 8.35047 15.5076 7.90744 17.2655C7.55105 18.6795 7.34542 20.8583 7.42238 22.4055L7.46861 23.3347L8.21219 23.8229C9.21436 24.4806 9.92939 24.8747 10.8439 25.2735C11.4299 25.5291 12.722 26.0127 12.8187 26.0127C12.842 26.0127 13.529 24.9327 13.7277 24.5838C13.8345 24.3961 13.8929 24.2209 13.8586 24.1908C13.8245 24.1611 13.6229 24.0651 13.4107 23.9777C13.1985 23.8903 12.8237 23.7074 12.5779 23.5712L12.131 23.3236L12.3324 23.1586C12.4431 23.0677 12.5541 22.9923 12.579 22.9909C12.6038 22.9895 12.9474 23.1168 13.3426 23.2739C14.8902 23.8889 16.2226 24.1375 17.9708 24.1375C19.7191 24.1375 21.0514 23.8889 22.5991 23.2739C22.9942 23.1168 23.3379 22.9895 23.3627 22.9909C23.3875 22.9923 23.4985 23.0677 23.6093 23.1586L23.8106 23.3236L23.3638 23.5712C23.1179 23.7074 22.7432 23.8903 22.5309 23.9777C22.0182 24.1889 22.009 24.201 22.1485 24.4748C22.2657 24.7049 23.0925 26.0127 23.1207 26.0127C23.1285 26.0127 23.4488 25.9052 23.8326 25.7738C25.1867 25.3103 26.355 24.7252 27.733 23.8206L28.4801 23.3302L28.5306 22.3166C28.7067 18.7857 27.7377 15.1648 25.7801 12.0384C25.2758 11.2331 25.3697 11.3009 24.0744 10.8073C23.3777 10.5418 21.8486 10.116 21.2313 10.0156L20.9489 9.96966L20.6705 10.5421L20.3921 11.1145L20.111 11.0679C19.1779 10.9133 16.5969 10.9142 15.7708 11.0697L15.5345 11.1141L15.2684 10.5454C15.0945 10.1738 14.9635 9.97839 14.8904 9.98162C14.8291 9.98429 14.4619 10.0601 14.0746 10.15ZM0.0406168 17.9947C0.0406168 18.7877 0.0508595 19.1121 0.0633472 18.7156C0.0758349 18.3191 0.0758349 17.6702 0.0633472 17.2738C0.0508595 16.8773 0.0406168 17.2017 0.0406168 17.9947ZM13.8438 16.7476C13.5412 16.8447 12.9488 17.3803 12.7825 17.7072C12.3145 18.6268 12.5138 19.8049 13.2468 20.4518C14.0098 21.1251 15.0232 21.0905 15.7454 20.3664C16.1792 19.9315 16.316 19.5505 16.3194 18.7684C16.322 18.1563 16.3047 18.0685 16.114 17.7233C15.6403 16.8659 14.7148 16.4682 13.8438 16.7476ZM20.7259 16.8376C19.4821 17.4539 19.1839 19.3203 20.1675 20.3328C21.1329 21.3267 22.5395 21.0672 23.1723 19.7785C23.6012 18.9051 23.4374 17.8481 22.7734 17.2047C22.3974 16.8404 22.0803 16.704 21.5488 16.6781C21.1714 16.6597 21.0295 16.6872 20.7259 16.8376Z" fill="white" fill-opacity="0.5"/>
<path fill-rule="evenodd" clip-rule="evenodd" d="M15.8427 0.0967741C12.512 0.500698 9.30704 1.85433 6.67487 3.96876C5.91123 4.58228 4.59231 5.90454 3.98034 6.67012C-0.496705 12.2715 -1.26435 19.9557 2.02006 26.294C2.8916 27.9759 3.91264 29.3699 5.26847 30.7292C8.67957 34.149 13.1405 36 17.9708 36C22.1131 36 26.0315 34.6196 29.2668 32.0206C30.0304 31.4071 31.3493 30.0848 31.9613 29.3193C34.0571 26.6972 35.47 23.3487 35.7971 20.2289C35.8387 19.8318 35.9016 19.4519 35.9368 19.3848C36.0126 19.2401 36.0245 16.4705 35.949 16.5462C35.9205 16.5747 35.86 16.2608 35.8144 15.8486C35.456 12.6061 34.0733 9.31261 31.9613 6.67012C31.3493 5.90454 30.0304 4.58228 29.2668 3.96876C26.6016 1.82782 23.4155 0.492047 20.0254 0.0944531C18.9433 -0.0324281 16.8991 -0.0313027 15.8427 0.0967741ZM14.0746 10.15C13.077 10.3816 12.446 10.5769 11.486 10.9513L10.6487 11.2779L10.2381 11.9109C9.2587 13.421 8.35047 15.5076 7.90744 17.2655C7.55105 18.6795 7.34542 20.8583 7.42238 22.4055L7.46861 23.3347L8.21219 23.8229C9.21436 24.4806 9.92939 24.8747 10.8439 25.2735C11.4299 25.5291 12.722 26.0127 12.8187 26.0127C12.842 26.0127 13.529 24.9327 13.7277 24.5838C13.8345 24.3961 13.8929 24.2209 13.8586 24.1908C13.8245 24.1611 13.6229 24.0651 13.4107 23.9777C13.1985 23.8903 12.8237 23.7074 12.5779 23.5712L12.131 23.3236L12.3324 23.1586C12.4431 23.0677 12.5541 22.9923 12.579 22.9909C12.6038 22.9895 12.9474 23.1168 13.3426 23.2739C14.8902 23.8889 16.2226 24.1375 17.9708 24.1375C19.7191 24.1375 21.0514 23.8889 22.5991 23.2739C22.9942 23.1168 23.3379 22.9895 23.3627 22.9909C23.3875 22.9923 23.4985 23.0677 23.6093 23.1586L23.8106 23.3236L23.3638 23.5712C23.1179 23.7074 22.7432 23.8903 22.5309 23.9777C22.0182 24.1889 22.009 24.201 22.1485 24.4748C22.2657 24.7049 23.0925 26.0127 23.1207 26.0127C23.1285 26.0127 23.4488 25.9052 23.8326 25.7738C25.1867 25.3103 26.355 24.7252 27.733 23.8206L28.4801 23.3302L28.5306 22.3166C28.7067 18.7857 27.7377 15.1648 25.7801 12.0384C25.2758 11.2331 25.3697 11.3009 24.0744 10.8073C23.3777 10.5418 21.8486 10.116 21.2313 10.0156L20.9489 9.96966L20.6705 10.5421L20.3921 11.1145L20.111 11.0679C19.1779 10.9133 16.5969 10.9142 15.7708 11.0697L15.5345 11.1141L15.2684 10.5454C15.0945 10.1738 14.9635 9.97839 14.8904 9.98162C14.8291 9.98429 14.4619 10.0601 14.0746 10.15ZM0.0406168 17.9947C0.0406168 18.7877 0.0508595 19.1121 0.0633472 18.7156C0.0758349 18.3191 0.0758349 17.6702 0.0633472 17.2738C0.0508595 16.8773 0.0406168 17.2017 0.0406168 17.9947ZM13.8438 16.7476C13.5412 16.8447 12.9488 17.3803 12.7825 17.7072C12.3145 18.6268 12.5138 19.8049 13.2468 20.4518C14.0098 21.1251 15.0232 21.0905 15.7454 20.3664C16.1792 19.9315 16.316 19.5505 16.3194 18.7684C16.322 18.1563 16.3047 18.0685 16.114 17.7233C15.6403 16.8659 14.7148 16.4682 13.8438 16.7476ZM20.7259 16.8376C19.4821 17.4539 19.1839 19.3203 20.1675 20.3328C21.1329 21.3267 22.5395 21.0672 23.1723 19.7785C23.6012 18.9051 23.4374 17.8481 22.7734 17.2047C22.3974 16.8404 22.0803 16.704 21.5488 16.6781C21.1714 16.6597 21.0295 16.6872 20.7259 16.8376Z" stroke="url(#paint0_linear_1553_453)" stroke-width="4" mask="url(#path-1-inside-1_1553_453)"/>
</g>
<defs>
<filter id="filter0_b_1553_453" x="-20" y="-20" width="76" height="76" filterUnits="userSpaceOnUse" color-interpolation-filters="sRGB">
<feFlood flood-opacity="0" result="BackgroundImageFix"/>
<feGaussianBlur in="BackgroundImageFix" stdDeviation="10"/>
<feComposite in2="SourceAlpha" operator="in" result="effect1_backgroundBlur_1553_453"/>
<feBlend mode="normal" in="SourceGraphic" in2="effect1_backgroundBlur_1553_453" result="shape"/>
</filter>
<linearGradient id="paint0_linear_1553_453" x1="4.875" y1="6.75" x2="29.25" y2="31.125" gradientUnits="userSpaceOnUse">
<stop stop-color="#3A0184" stop-opacity="0.5"/>
<stop offset="1" stop-color="white" stop-opacity="0.3"/>
</linearGradient>
</defs>
</svg>
