<svg width="38" height="47" viewBox="0 0 38 47" fill="none" xmlns="http://www.w3.org/2000/svg">
<path fill-rule="evenodd" clip-rule="evenodd" d="M16.8824 0.10055C14.5543 0.494285 12.4583 1.65848 10.7403 3.51203C8.8059 5.59896 7.84746 7.92174 7.72603 10.8172C7.54658 15.0956 9.60824 18.9717 13.2273 21.16C16.4488 23.1078 20.8138 23.1343 24.0586 21.2258C25.3401 20.4721 26.6608 19.2648 27.5679 18.0179C30.1391 14.4837 30.4024 9.34818 28.2058 5.57845C26.6201 2.85706 24.0695 0.920479 21.1616 0.229742C20.1515 -0.0101591 17.9327 -0.0771915 16.8824 0.10055ZM9.12639 22.7368C7.57386 22.9662 6.78997 23.2105 5.74879 23.7896C2.75239 25.4563 0.904412 29.0998 0.156092 34.8165C0.0503607 35.6242 0.00418129 36.6492 0.000615318 38.2646C-0.0039313 40.3668 0.0125613 40.6263 0.193624 41.299C0.946847 44.0979 2.91286 46.0588 5.69949 46.7907L6.49649 47H18.9774H31.4583L32.2354 46.7956C35.1334 46.0331 36.9755 44.201 37.7619 41.299C38.1342 39.925 38.0604 36.1943 37.6072 33.4832C37.0652 30.2408 36.1194 27.8115 34.6552 25.9017C33.912 24.9323 33.0769 24.2358 31.9932 23.6818C30.9198 23.133 30.1796 22.907 28.9855 22.7639C27.6577 22.6046 27.4519 22.6732 25.6041 23.8904C23.9536 24.9774 23.2198 25.3682 22.1201 25.7452C21.0797 26.1019 20.0936 26.265 18.9774 26.265C17.8298 26.265 16.8909 26.1048 15.7908 25.7213C14.672 25.3312 14.0647 25.0067 12.4249 23.9231C10.6489 22.7493 10.181 22.5811 9.12639 22.7368Z" fill="white"/>
</svg>
