<svg width="36" height="36" viewBox="0 0 36 36" fill="none" xmlns="http://www.w3.org/2000/svg">
<g filter="url(#filter0_b_1553_449)">
<mask id="path-1-inside-1_1553_449" fill="white">
<path fill-rule="evenodd" clip-rule="evenodd" d="M14.9426 0.190642C12.5281 0.613069 10.0509 1.61044 7.94628 3.00722C6.47608 3.983 4.01074 6.41355 3.09901 7.78615C0.997091 10.9505 -0.00142976 14.2392 1.53648e-06 17.9925C0.00182318 22.9911 1.76921 27.2458 5.29565 30.7408C8.85254 34.266 13.0413 36 18.0003 36C22.9594 36 27.1481 34.266 30.705 30.7408C34.232 27.2451 36 22.9886 36 17.9925C36 12.9965 34.232 8.73996 30.705 5.2443C27.9214 2.48546 24.7369 0.827599 21.0027 0.193372C19.4912 -0.063283 16.4014 -0.0647132 14.9426 0.190642ZM22.2291 12.1555C20.2969 12.9053 16.9887 14.1837 14.8775 14.9963C7.67108 17.7701 7.59366 17.8026 7.36973 18.144C7.17351 18.4432 7.17598 18.4808 7.40785 18.7114C7.61682 18.9193 12.018 20.3979 12.428 20.3979C12.5016 20.3979 14.6197 19.0981 17.1352 17.5094C19.6506 15.9208 22.0273 14.4289 22.4166 14.1939C23.1129 13.774 23.4653 13.6656 23.4653 13.8712C23.4653 13.9286 21.5635 15.6916 19.239 17.7892C15.7172 20.9672 15.0025 21.6702 14.9508 22.008C14.9165 22.2309 14.8546 23.0275 14.8131 23.7783C14.7716 24.5292 14.7039 25.3921 14.6627 25.6961C14.5371 26.6219 14.9636 26.4554 16.4467 24.9993C17.3077 24.1542 17.7735 23.7837 17.887 23.8537C17.9792 23.9107 19.0721 24.7069 20.3155 25.623C22.7306 27.4024 23.0804 27.5512 23.5831 27.012C23.7251 26.8596 23.9065 26.4355 23.9861 26.0694C24.8005 22.3275 26.9784 11.8582 26.9784 11.6853C26.9784 11.2927 26.4692 10.7759 26.0906 10.7844C25.8991 10.7888 24.1614 11.4057 22.2291 12.1555Z"/>
</mask>
<path fill-rule="evenodd" clip-rule="evenodd" d="M14.9426 0.190642C12.5281 0.613069 10.0509 1.61044 7.94628 3.00722C6.47608 3.983 4.01074 6.41355 3.09901 7.78615C0.997091 10.9505 -0.00142976 14.2392 1.53648e-06 17.9925C0.00182318 22.9911 1.76921 27.2458 5.29565 30.7408C8.85254 34.266 13.0413 36 18.0003 36C22.9594 36 27.1481 34.266 30.705 30.7408C34.232 27.2451 36 22.9886 36 17.9925C36 12.9965 34.232 8.73996 30.705 5.2443C27.9214 2.48546 24.7369 0.827599 21.0027 0.193372C19.4912 -0.063283 16.4014 -0.0647132 14.9426 0.190642ZM22.2291 12.1555C20.2969 12.9053 16.9887 14.1837 14.8775 14.9963C7.67108 17.7701 7.59366 17.8026 7.36973 18.144C7.17351 18.4432 7.17598 18.4808 7.40785 18.7114C7.61682 18.9193 12.018 20.3979 12.428 20.3979C12.5016 20.3979 14.6197 19.0981 17.1352 17.5094C19.6506 15.9208 22.0273 14.4289 22.4166 14.1939C23.1129 13.774 23.4653 13.6656 23.4653 13.8712C23.4653 13.9286 21.5635 15.6916 19.239 17.7892C15.7172 20.9672 15.0025 21.6702 14.9508 22.008C14.9165 22.2309 14.8546 23.0275 14.8131 23.7783C14.7716 24.5292 14.7039 25.3921 14.6627 25.6961C14.5371 26.6219 14.9636 26.4554 16.4467 24.9993C17.3077 24.1542 17.7735 23.7837 17.887 23.8537C17.9792 23.9107 19.0721 24.7069 20.3155 25.623C22.7306 27.4024 23.0804 27.5512 23.5831 27.012C23.7251 26.8596 23.9065 26.4355 23.9861 26.0694C24.8005 22.3275 26.9784 11.8582 26.9784 11.6853C26.9784 11.2927 26.4692 10.7759 26.0906 10.7844C25.8991 10.7888 24.1614 11.4057 22.2291 12.1555Z" fill="white" fill-opacity="0.5"/>
<path fill-rule="evenodd" clip-rule="evenodd" d="M14.9426 0.190642C12.5281 0.613069 10.0509 1.61044 7.94628 3.00722C6.47608 3.983 4.01074 6.41355 3.09901 7.78615C0.997091 10.9505 -0.00142976 14.2392 1.53648e-06 17.9925C0.00182318 22.9911 1.76921 27.2458 5.29565 30.7408C8.85254 34.266 13.0413 36 18.0003 36C22.9594 36 27.1481 34.266 30.705 30.7408C34.232 27.2451 36 22.9886 36 17.9925C36 12.9965 34.232 8.73996 30.705 5.2443C27.9214 2.48546 24.7369 0.827599 21.0027 0.193372C19.4912 -0.063283 16.4014 -0.0647132 14.9426 0.190642ZM22.2291 12.1555C20.2969 12.9053 16.9887 14.1837 14.8775 14.9963C7.67108 17.7701 7.59366 17.8026 7.36973 18.144C7.17351 18.4432 7.17598 18.4808 7.40785 18.7114C7.61682 18.9193 12.018 20.3979 12.428 20.3979C12.5016 20.3979 14.6197 19.0981 17.1352 17.5094C19.6506 15.9208 22.0273 14.4289 22.4166 14.1939C23.1129 13.774 23.4653 13.6656 23.4653 13.8712C23.4653 13.9286 21.5635 15.6916 19.239 17.7892C15.7172 20.9672 15.0025 21.6702 14.9508 22.008C14.9165 22.2309 14.8546 23.0275 14.8131 23.7783C14.7716 24.5292 14.7039 25.3921 14.6627 25.6961C14.5371 26.6219 14.9636 26.4554 16.4467 24.9993C17.3077 24.1542 17.7735 23.7837 17.887 23.8537C17.9792 23.9107 19.0721 24.7069 20.3155 25.623C22.7306 27.4024 23.0804 27.5512 23.5831 27.012C23.7251 26.8596 23.9065 26.4355 23.9861 26.0694C24.8005 22.3275 26.9784 11.8582 26.9784 11.6853C26.9784 11.2927 26.4692 10.7759 26.0906 10.7844C25.8991 10.7888 24.1614 11.4057 22.2291 12.1555Z" stroke="url(#paint0_linear_1553_449)" stroke-width="4" mask="url(#path-1-inside-1_1553_449)"/>
</g>
<defs>
<filter id="filter0_b_1553_449" x="-20" y="-20" width="76" height="76" filterUnits="userSpaceOnUse" color-interpolation-filters="sRGB">
<feFlood flood-opacity="0" result="BackgroundImageFix"/>
<feGaussianBlur in="BackgroundImageFix" stdDeviation="10"/>
<feComposite in2="SourceAlpha" operator="in" result="effect1_backgroundBlur_1553_449"/>
<feBlend mode="normal" in="SourceGraphic" in2="effect1_backgroundBlur_1553_449" result="shape"/>
</filter>
<linearGradient id="paint0_linear_1553_449" x1="4.875" y1="6.75" x2="29.25" y2="31.125" gradientUnits="userSpaceOnUse">
<stop stop-color="#3A0184" stop-opacity="0.5"/>
<stop offset="1" stop-color="white" stop-opacity="0.3"/>
</linearGradient>
</defs>
</svg>
