<svg width="36" height="36" viewBox="0 0 36 36" fill="none" xmlns="http://www.w3.org/2000/svg">
<g filter="url(#filter0_b_1553_449)">
<path fill-rule="evenodd" clip-rule="evenodd" d="M14.9426 0.190642C12.5281 0.613069 10.0509 1.61044 7.94628 3.00722C6.47608 3.983 4.01074 6.41355 3.09901 7.78615C0.997091 10.9505 -0.00142976 14.2392 1.53648e-06 17.9925C0.00182318 22.9911 1.76921 27.2458 5.29565 30.7408C8.85254 34.266 13.0413 36 18.0003 36C22.9594 36 27.1481 34.266 30.705 30.7408C34.232 27.2451 36 22.9886 36 17.9925C36 12.9965 34.232 8.73996 30.705 5.2443C27.9214 2.48546 24.7369 0.827599 21.0027 0.193372C19.4912 -0.063283 16.4014 -0.0647132 14.9426 0.190642ZM22.2291 12.1555C20.2969 12.9053 16.9887 14.1837 14.8775 14.9963C7.67108 17.7701 7.59366 17.8026 7.36973 18.144C7.17351 18.4432 7.17598 18.4808 7.40785 18.7114C7.61682 18.9193 12.018 20.3979 12.428 20.3979C12.5016 20.3979 14.6197 19.0981 17.1352 17.5094C19.6506 15.9208 22.0273 14.4289 22.4166 14.1939C23.1129 13.774 23.4653 13.6656 23.4653 13.8712C23.4653 13.9286 21.5635 15.6916 19.239 17.7892C15.7172 20.9672 15.0025 21.6702 14.9508 22.008C14.9165 22.2309 14.8546 23.0275 14.8131 23.7783C14.7716 24.5292 14.7039 25.3921 14.6627 25.6961C14.5371 26.6219 14.9636 26.4554 16.4467 24.9993C17.3077 24.1542 17.7735 23.7837 17.887 23.8537C17.9792 23.9107 19.0721 24.7069 20.3155 25.623C22.7306 27.4024 23.0804 27.5512 23.5831 27.012C23.7251 26.8596 23.9065 26.4355 23.9861 26.0694C24.8005 22.3275 26.9784 11.8582 26.9784 11.6853C26.9784 11.2927 26.4692 10.7759 26.0906 10.7844C25.8991 10.7888 24.1614 11.4057 22.2291 12.1555Z" fill="white" fill-opacity="0.5"/>
<path d="M15.115 1.17567L15.1149 1.17568C12.8407 1.57357 10.4925 2.51757 8.49924 3.84042C7.84208 4.27659 6.91086 5.07704 6.01529 5.95999C5.11702 6.84559 4.33061 7.73934 3.93199 8.33945L3.09901 7.78615L3.93199 8.33945C1.93766 11.3419 0.998646 14.4383 1 17.9922C1.00173 22.7261 2.66397 26.7246 5.99959 30.0305C9.37129 33.3721 13.3079 35 18.0003 35C22.6928 35 26.6294 33.3722 30.0011 30.0305C33.3373 26.7239 35 22.7237 35 17.9925C35 13.2614 33.3373 9.26115 30.0011 5.95455C27.3583 3.33526 24.3591 1.77777 20.8352 1.17926L15.115 1.17567ZM15.115 1.17567C15.7589 1.06296 16.828 0.999492 17.9524 1M15.115 1.17567L17.9524 1M17.9524 1C19.0752 1.00051 20.1608 1.06474 20.8352 1.17925L17.9524 1ZM24.7275 27.014C24.8227 26.7913 24.9086 26.5334 24.9632 26.282L17.1473 25.7129C17.4354 25.4302 17.6666 25.2132 17.8468 25.0543C17.9189 25.1066 17.9971 25.1635 18.0807 25.2244C18.5191 25.5438 19.1017 25.9708 19.7223 26.4281C20.888 27.287 21.6892 27.8582 22.2752 28.1073C22.5953 28.2433 22.9968 28.3504 23.4346 28.2448C23.8662 28.1407 24.1488 27.8717 24.3145 27.694L24.3148 27.6936C24.5093 27.4849 24.645 27.2068 24.7275 27.014ZM24.9633 26.2819C25.3715 24.4061 26.1204 20.8495 26.7667 17.7426C27.09 16.1886 27.388 14.7453 27.6053 13.6792C27.7138 13.1464 27.8026 12.7062 27.8644 12.3929C27.8952 12.2367 27.9198 12.1092 27.937 12.0165C27.9455 11.9708 27.953 11.929 27.9587 11.8947C27.9614 11.8781 27.9647 11.8576 27.9676 11.8365C27.969 11.8262 27.9711 11.8105 27.9729 11.7923C27.974 11.7812 27.9784 11.7386 27.9784 11.6853C27.9784 11.1119 27.6479 10.6455 27.3888 10.3825C27.1358 10.1259 26.6625 9.77134 26.0683 9.78461L26.0676 9.78462C25.9094 9.78827 25.7501 9.83156 25.6962 9.84623C25.6935 9.84697 25.691 9.84763 25.6888 9.84822C25.5982 9.87264 25.4908 9.90517 25.3744 9.9423C25.1395 10.0172 24.8325 10.1222 24.4781 10.2481C23.7672 10.5005 22.8404 10.8457 21.8674 11.2233C19.9361 11.9727 16.6287 13.2507 14.5183 14.063C10.9251 15.4461 9.08432 16.1551 8.11852 16.5601C7.64751 16.7575 7.32254 16.9076 7.09466 17.0497C6.96864 17.1283 6.84982 17.2178 6.74151 17.33C6.63589 17.4395 6.56772 17.5434 6.53503 17.5933L6.53353 17.5956C6.48763 17.6656 6.41583 17.7755 6.35966 17.8919C6.30084 18.0138 6.21145 18.2364 6.2305 18.5204C6.25036 18.8163 6.37724 19.0322 6.46984 19.1586C6.55164 19.2702 6.64836 19.3664 6.70198 19.4198L6.70256 19.4203C6.70258 19.4203 6.70259 19.4204 6.70261 19.4204C6.83715 19.5542 6.99858 19.6348 7.03633 19.6537C7.03839 19.6547 7.04009 19.6556 7.04139 19.6562C7.11327 19.6927 7.19411 19.7291 7.27373 19.7631C7.43537 19.8322 7.64233 19.9131 7.87219 19.9992C8.33472 20.1723 8.92872 20.3805 9.52411 20.5805C10.1197 20.7806 10.7258 20.9756 11.2131 21.1215C11.4557 21.1942 11.6768 21.2572 11.8559 21.3029C11.9448 21.3256 12.0323 21.3463 12.1117 21.3621C12.1694 21.3735 12.2953 21.3979 12.428 21.3979C12.5744 21.3979 12.6869 21.3646 12.714 21.3566L12.7156 21.3561C12.7596 21.3432 12.7945 21.3297 12.8137 21.322C12.8534 21.3061 12.8869 21.29 12.9063 21.2804C12.9482 21.2598 12.9925 21.2359 13.0322 21.214C13.1147 21.1684 13.223 21.1057 13.3496 21.0309C13.6049 20.88 13.9606 20.6645 14.3889 20.4017C14.8362 20.1272 15.3662 19.7989 15.9498 19.4346C15.6024 19.7582 15.3202 20.0266 15.0923 20.2508C14.7731 20.5649 14.5328 20.8188 14.3638 21.0319C14.2126 21.2227 14.0168 21.5017 13.9623 21.8562L24.9633 26.2819Z" stroke="url(#paint0_linear_1553_449)" stroke-width="2"/>
</g>
<defs>
<filter id="filter0_b_1553_449" x="-20" y="-20" width="76" height="76" filterUnits="userSpaceOnUse" color-interpolation-filters="sRGB">
<feFlood flood-opacity="0" result="BackgroundImageFix"/>
<feGaussianBlur in="BackgroundImageFix" stdDeviation="10"/>
<feComposite in2="SourceAlpha" operator="in" result="effect1_backgroundBlur_1553_449"/>
<feBlend mode="normal" in="SourceGraphic" in2="effect1_backgroundBlur_1553_449" result="shape"/>
</filter>
<linearGradient id="paint0_linear_1553_449" x1="4.875" y1="6.75" x2="29.25" y2="31.125" gradientUnits="userSpaceOnUse">
<stop stop-color="#3A0184" stop-opacity="0.5"/>
<stop offset="1" stop-color="white" stop-opacity="0.3"/>
</linearGradient>
</defs>
</svg>
