<svg width="65" height="36" viewBox="0 0 65 36" fill="none" xmlns="http://www.w3.org/2000/svg">
<g filter="url(#filter0_b_1637_814)">
<rect x="1" y="1" width="63" height="34" rx="17" stroke="white" stroke-opacity="0.5" stroke-width="2"/>
<rect x="1" y="1" width="63" height="34" rx="17" stroke="url(#paint0_linear_1637_814)" stroke-width="2"/>
</g>
<g filter="url(#filter1_b_1637_814)">
<circle cx="47" cy="18" r="15" fill="white" fill-opacity="0.5"/>
</g>
<mask id="path-3-inside-1_1637_814" fill="white">
<path fill-rule="evenodd" clip-rule="evenodd" d="M47.3775 5.49413C47.3681 6.45598 47.1288 7.00803 46.4543 7.62389C45.8059 8.21588 45.5215 8.79673 45.5215 9.52948V9.8716L45.8147 9.78977C46.1362 9.70001 47.422 9.671 47.9021 9.7427L48.167 9.78224L48.2221 9.59003C48.5188 8.55577 48.5573 7.08477 48.307 6.35324C48.1479 5.88873 47.9175 5.51469 47.6051 5.21424L47.3824 5L47.3775 5.49413ZM38.166 8.54009C38.0925 8.56121 38.1458 8.64121 38.4464 8.961C38.8439 9.38383 39.0945 9.82056 39.2236 10.3153C39.2853 10.5516 39.2897 10.6778 39.2462 10.9577C39.1711 11.4406 39.2526 11.9407 39.4832 12.4119C39.6747 12.8032 40.155 13.3644 40.2019 13.2515C40.2717 13.0836 40.6719 12.5362 40.9224 12.266C41.0757 12.1007 41.3802 11.8308 41.5992 11.6662L41.9971 11.3669L41.774 11.0057C41.0076 9.76489 40.0329 8.88665 39.1489 8.64045C38.8382 8.55388 38.3065 8.49964 38.166 8.54009ZM56.0705 9.49192C55.6559 9.88214 55.2172 10.1325 54.7222 10.2612C54.4855 10.3227 54.359 10.3272 54.0786 10.2837C53.5949 10.2088 53.0938 10.2902 52.6218 10.5203C52.2298 10.7114 51.6675 11.1908 51.7806 11.2377C51.9489 11.3073 52.4973 11.7068 52.7679 11.9569C52.9335 12.11 53.2037 12.4137 53.3684 12.6318L53.6677 13.0283L54.0515 12.7906C55.165 12.1008 55.9863 11.2461 56.3143 10.4355C56.4575 10.0814 56.5609 9.42714 56.5009 9.25422C56.4578 9.13015 56.4504 9.13417 56.0705 9.49192ZM46.2863 11.5414C44.7659 11.7346 43.4789 12.3634 42.4068 13.4369C41.446 14.3991 40.8816 15.4325 40.5968 16.7513C40.4662 17.3561 40.4662 18.6909 40.5968 19.2957C40.8816 20.6145 41.446 21.6479 42.4068 22.6101C43.3491 23.5537 44.4142 24.1329 45.7255 24.4151C46.3314 24.5455 47.6686 24.5455 48.2745 24.4151C49.5968 24.1306 50.6337 23.566 51.5931 22.6084C52.5526 21.6507 53.1182 20.6156 53.4032 19.2957C53.5338 18.6909 53.5338 17.3561 53.4032 16.7513C53.1263 15.4691 52.5681 14.4296 51.648 13.4825C50.7473 12.5555 49.6609 11.9493 48.3765 11.657C47.9509 11.5602 46.6884 11.4903 46.2863 11.5414ZM35.6567 16.623C35.2848 16.7048 34.8532 16.8719 34.6412 17.0162C34.4681 17.1341 33.9997 17.5711 34 17.6145C34.0001 17.6295 34.2123 17.6443 34.4716 17.6474C35.4139 17.6586 35.9707 17.9016 36.5815 18.5682C37.1767 19.2178 37.762 19.4993 38.5175 19.4993H38.8333L38.7512 19.2067C38.6608 18.8843 38.6314 17.5302 38.7055 17.0979L38.7463 16.8593L38.5525 16.8041C37.725 16.568 36.3095 16.4796 35.6567 16.623ZM55.2487 16.8403C55.3386 17.1612 55.3676 18.4448 55.2958 18.924L55.2562 19.1884L55.4488 19.2434C56.4828 19.539 57.9587 19.578 58.6884 19.3291C58.9062 19.2548 59.1815 19.1342 59.3002 19.061C59.506 18.934 60.0004 18.4901 60 18.4326C59.9999 18.4175 59.7877 18.4027 59.5284 18.3996C58.5861 18.3884 58.0293 18.1454 57.4185 17.4788C56.8254 16.8315 56.2435 16.5477 55.5094 16.5477H55.1667L55.2487 16.8403ZM53.7549 22.8584C53.7019 23.025 53.1538 23.7303 52.8808 23.9832C52.7414 24.1123 52.4866 24.3213 52.3145 24.4478L52.0017 24.6777L52.2502 25.0782C52.9253 26.1657 53.7938 26.9952 54.5962 27.3187C54.9404 27.4575 55.5312 27.5571 55.7587 27.5147L55.927 27.4833L55.5547 27.0872C55.1561 26.6631 54.9056 26.227 54.7764 25.7318C54.7147 25.4954 54.7103 25.3692 54.7538 25.0893C54.8635 24.3838 54.6115 23.5761 54.107 23.016C53.8484 22.7288 53.8026 22.7083 53.7549 22.8584ZM39.9314 23.265C38.8267 23.9482 37.9678 24.8499 37.6733 25.6355C37.542 25.9859 37.4513 26.5505 37.4917 26.7663L37.5231 26.9344L37.9198 26.5628C38.3447 26.1648 38.7817 25.9148 39.2778 25.7859C39.5145 25.7243 39.641 25.7199 39.9214 25.7633C40.4008 25.8376 40.9068 25.7566 41.3666 25.5321C41.7535 25.3432 42.3289 24.8559 42.2194 24.8098C42.0487 24.738 41.5018 24.3393 41.2321 24.0901C41.0665 23.9371 40.7961 23.6331 40.6312 23.4147L40.3314 23.0176L39.9314 23.265ZM48.1981 26.2573C47.9122 26.3393 46.5383 26.3701 46.0979 26.3043L45.833 26.2648L45.7779 26.457C45.4795 27.4971 45.4425 28.9616 45.6959 29.7025C45.7725 29.9264 45.8841 30.1898 45.944 30.2878C46.0576 30.4735 46.5331 31.0004 46.5868 31C46.6038 30.9999 46.6201 30.7881 46.6232 30.5293C46.6344 29.5903 46.8778 29.0351 47.5465 28.4237C48.2023 27.824 48.5005 27.2048 48.4682 26.5099L48.453 26.1842L48.1981 26.2573Z"/>
</mask>
<path fill-rule="evenodd" clip-rule="evenodd" d="M47.3775 5.49413C47.3681 6.45598 47.1288 7.00803 46.4543 7.62389C45.8059 8.21588 45.5215 8.79673 45.5215 9.52948V9.8716L45.8147 9.78977C46.1362 9.70001 47.422 9.671 47.9021 9.7427L48.167 9.78224L48.2221 9.59003C48.5188 8.55577 48.5573 7.08477 48.307 6.35324C48.1479 5.88873 47.9175 5.51469 47.6051 5.21424L47.3824 5L47.3775 5.49413ZM38.166 8.54009C38.0925 8.56121 38.1458 8.64121 38.4464 8.961C38.8439 9.38383 39.0945 9.82056 39.2236 10.3153C39.2853 10.5516 39.2897 10.6778 39.2462 10.9577C39.1711 11.4406 39.2526 11.9407 39.4832 12.4119C39.6747 12.8032 40.155 13.3644 40.2019 13.2515C40.2717 13.0836 40.6719 12.5362 40.9224 12.266C41.0757 12.1007 41.3802 11.8308 41.5992 11.6662L41.9971 11.3669L41.774 11.0057C41.0076 9.76489 40.0329 8.88665 39.1489 8.64045C38.8382 8.55388 38.3065 8.49964 38.166 8.54009ZM56.0705 9.49192C55.6559 9.88214 55.2172 10.1325 54.7222 10.2612C54.4855 10.3227 54.359 10.3272 54.0786 10.2837C53.5949 10.2088 53.0938 10.2902 52.6218 10.5203C52.2298 10.7114 51.6675 11.1908 51.7806 11.2377C51.9489 11.3073 52.4973 11.7068 52.7679 11.9569C52.9335 12.11 53.2037 12.4137 53.3684 12.6318L53.6677 13.0283L54.0515 12.7906C55.165 12.1008 55.9863 11.2461 56.3143 10.4355C56.4575 10.0814 56.5609 9.42714 56.5009 9.25422C56.4578 9.13015 56.4504 9.13417 56.0705 9.49192ZM46.2863 11.5414C44.7659 11.7346 43.4789 12.3634 42.4068 13.4369C41.446 14.3991 40.8816 15.4325 40.5968 16.7513C40.4662 17.3561 40.4662 18.6909 40.5968 19.2957C40.8816 20.6145 41.446 21.6479 42.4068 22.6101C43.3491 23.5537 44.4142 24.1329 45.7255 24.4151C46.3314 24.5455 47.6686 24.5455 48.2745 24.4151C49.5968 24.1306 50.6337 23.566 51.5931 22.6084C52.5526 21.6507 53.1182 20.6156 53.4032 19.2957C53.5338 18.6909 53.5338 17.3561 53.4032 16.7513C53.1263 15.4691 52.5681 14.4296 51.648 13.4825C50.7473 12.5555 49.6609 11.9493 48.3765 11.657C47.9509 11.5602 46.6884 11.4903 46.2863 11.5414ZM35.6567 16.623C35.2848 16.7048 34.8532 16.8719 34.6412 17.0162C34.4681 17.1341 33.9997 17.5711 34 17.6145C34.0001 17.6295 34.2123 17.6443 34.4716 17.6474C35.4139 17.6586 35.9707 17.9016 36.5815 18.5682C37.1767 19.2178 37.762 19.4993 38.5175 19.4993H38.8333L38.7512 19.2067C38.6608 18.8843 38.6314 17.5302 38.7055 17.0979L38.7463 16.8593L38.5525 16.8041C37.725 16.568 36.3095 16.4796 35.6567 16.623ZM55.2487 16.8403C55.3386 17.1612 55.3676 18.4448 55.2958 18.924L55.2562 19.1884L55.4488 19.2434C56.4828 19.539 57.9587 19.578 58.6884 19.3291C58.9062 19.2548 59.1815 19.1342 59.3002 19.061C59.506 18.934 60.0004 18.4901 60 18.4326C59.9999 18.4175 59.7877 18.4027 59.5284 18.3996C58.5861 18.3884 58.0293 18.1454 57.4185 17.4788C56.8254 16.8315 56.2435 16.5477 55.5094 16.5477H55.1667L55.2487 16.8403ZM53.7549 22.8584C53.7019 23.025 53.1538 23.7303 52.8808 23.9832C52.7414 24.1123 52.4866 24.3213 52.3145 24.4478L52.0017 24.6777L52.2502 25.0782C52.9253 26.1657 53.7938 26.9952 54.5962 27.3187C54.9404 27.4575 55.5312 27.5571 55.7587 27.5147L55.927 27.4833L55.5547 27.0872C55.1561 26.6631 54.9056 26.227 54.7764 25.7318C54.7147 25.4954 54.7103 25.3692 54.7538 25.0893C54.8635 24.3838 54.6115 23.5761 54.107 23.016C53.8484 22.7288 53.8026 22.7083 53.7549 22.8584ZM39.9314 23.265C38.8267 23.9482 37.9678 24.8499 37.6733 25.6355C37.542 25.9859 37.4513 26.5505 37.4917 26.7663L37.5231 26.9344L37.9198 26.5628C38.3447 26.1648 38.7817 25.9148 39.2778 25.7859C39.5145 25.7243 39.641 25.7199 39.9214 25.7633C40.4008 25.8376 40.9068 25.7566 41.3666 25.5321C41.7535 25.3432 42.3289 24.8559 42.2194 24.8098C42.0487 24.738 41.5018 24.3393 41.2321 24.0901C41.0665 23.9371 40.7961 23.6331 40.6312 23.4147L40.3314 23.0176L39.9314 23.265ZM48.1981 26.2573C47.9122 26.3393 46.5383 26.3701 46.0979 26.3043L45.833 26.2648L45.7779 26.457C45.4795 27.4971 45.4425 28.9616 45.6959 29.7025C45.7725 29.9264 45.8841 30.1898 45.944 30.2878C46.0576 30.4735 46.5331 31.0004 46.5868 31C46.6038 30.9999 46.6201 30.7881 46.6232 30.5293C46.6344 29.5903 46.8778 29.0351 47.5465 28.4237C48.2023 27.824 48.5005 27.2048 48.4682 26.5099L48.453 26.1842L48.1981 26.2573Z" fill="#1A1A18" stroke="#1A1A18" stroke-width="4" mask="url(#path-3-inside-1_1637_814)"/>
<defs>
<filter id="filter0_b_1637_814" x="-20" y="-20" width="105" height="76" filterUnits="userSpaceOnUse" color-interpolation-filters="sRGB">
<feFlood flood-opacity="0" result="BackgroundImageFix"/>
<feGaussianBlur in="BackgroundImageFix" stdDeviation="10"/>
<feComposite in2="SourceAlpha" operator="in" result="effect1_backgroundBlur_1637_814"/>
<feBlend mode="normal" in="SourceGraphic" in2="effect1_backgroundBlur_1637_814" result="shape"/>
</filter>
<filter id="filter1_b_1637_814" x="12" y="-17" width="70" height="70" filterUnits="userSpaceOnUse" color-interpolation-filters="sRGB">
<feFlood flood-opacity="0" result="BackgroundImageFix"/>
<feGaussianBlur in="BackgroundImageFix" stdDeviation="10"/>
<feComposite in2="SourceAlpha" operator="in" result="effect1_backgroundBlur_1637_814"/>
<feBlend mode="normal" in="SourceGraphic" in2="effect1_backgroundBlur_1637_814" result="shape"/>
</filter>
<linearGradient id="paint0_linear_1637_814" x1="8.80208" y1="6.75" x2="29.4641" y2="44.0564" gradientUnits="userSpaceOnUse">
<stop stop-color="#3A0184" stop-opacity="0.5"/>
<stop offset="1" stop-color="white" stop-opacity="0.3"/>
</linearGradient>
</defs>
</svg>
