<svg width="36" height="36" viewBox="0 0 36 36" fill="none" xmlns="http://www.w3.org/2000/svg">
<g filter="url(#filter0_b_1553_447)">
<mask id="path-1-inside-1_1553_447" fill="white">
<path fill-rule="evenodd" clip-rule="evenodd" d="M16.7667 0.0412354C8.85478 0.571724 2.16811 6.31508 0.444454 14.0607C-0.119582 16.595 -0.119582 19.4178 0.444454 21.9521C1.95085 28.7214 7.29648 34.0696 14.0625 35.5768C16.5956 36.1411 19.417 36.1411 21.9501 35.5768C28.0939 34.2083 33.1221 29.654 35.0868 23.6784C35.6017 22.112 35.9648 20.1604 35.9648 18.9582C35.9648 18.6717 36 18.4996 36 18.382C36 18.253 36 18.1685 36 17.9359C36 17.6721 36 17.7246 36 17.5484C35.9647 17.0398 36 17.3645 35.9648 17.02C35.9648 16.729 35.916 16.1598 35.8565 15.7024C34.6252 6.24483 26.2855 -0.597056 16.7667 0.0412354ZM14.9364 12.5435C14.3225 12.6551 13.9748 12.8146 13.7419 13.0915C13.5146 13.3617 13.5467 13.4458 13.9039 13.5165C14.3474 13.6042 14.755 14.0068 14.8831 14.4834C15.0304 15.0316 15.0909 17.0519 14.9822 17.7955C14.805 19.0083 14.5161 19.2993 13.9081 18.8778C13.2343 18.4106 11.6321 15.8036 10.8861 13.9606C10.6824 13.4572 10.4382 13.1973 10.0741 13.0965C9.89271 13.0463 9.17521 13.0359 7.92517 13.0653C6.21447 13.1056 6.03544 13.1213 5.90044 13.2437C5.80628 13.329 5.75234 13.4636 5.75234 13.6132C5.75234 14.1258 7.44902 17.5087 8.804 19.6974C11.1646 23.5107 13.1519 25.2011 15.9784 25.7995C16.3965 25.8881 16.903 25.9247 17.7598 25.9282C18.8095 25.9324 18.9838 25.9169 19.1741 25.8016C19.4941 25.6077 19.5496 25.475 19.6268 24.7178C19.7158 23.8461 19.8675 23.3588 20.1354 23.0846C20.5625 22.6477 21.0732 22.8718 21.9842 23.8957C22.8721 24.8938 23.4576 25.4328 23.9356 25.6921L24.3798 25.9331H26.4574C28.6758 25.9331 28.8806 25.9071 29.2323 25.5809C29.7874 25.0663 29.0624 23.9128 26.7873 21.6911C25.5347 20.4678 25.4303 20.2918 25.637 19.7504C25.7008 19.5832 26.2638 18.7657 26.8882 17.9337C28.9491 15.1876 29.5499 14.1139 29.3876 13.4668C29.2923 13.0869 29.1417 13.0671 26.528 13.0892C24.2442 13.1086 24.1309 13.1158 23.9992 13.2504C23.9235 13.3279 23.6827 13.8035 23.4641 14.3073C22.9527 15.4866 22.4777 16.3627 21.8025 17.3723C20.6811 19.0491 20.078 19.3961 19.7067 18.5785C19.6062 18.3571 19.5909 17.9928 19.5909 15.8222C19.5909 13.5359 19.5798 13.3006 19.4627 13.0857C19.2954 12.7789 18.9064 12.61 18.1487 12.5149C17.3514 12.4149 15.5564 12.4309 14.9364 12.5435ZM0 18.0064C0 18.2583 0.0128174 18.3614 0.0283814 18.2354C0.0440158 18.1094 0.0440158 17.9033 0.0283814 17.7774C0.0128174 17.6515 0 17.7545 0 18.0064Z"/>
</mask>
<path fill-rule="evenodd" clip-rule="evenodd" d="M16.7667 0.0412354C8.85478 0.571724 2.16811 6.31508 0.444454 14.0607C-0.119582 16.595 -0.119582 19.4178 0.444454 21.9521C1.95085 28.7214 7.29648 34.0696 14.0625 35.5768C16.5956 36.1411 19.417 36.1411 21.9501 35.5768C28.0939 34.2083 33.1221 29.654 35.0868 23.6784C35.6017 22.112 35.9648 20.1604 35.9648 18.9582C35.9648 18.6717 36 18.4996 36 18.382C36 18.253 36 18.1685 36 17.9359C36 17.6721 36 17.7246 36 17.5484C35.9647 17.0398 36 17.3645 35.9648 17.02C35.9648 16.729 35.916 16.1598 35.8565 15.7024C34.6252 6.24483 26.2855 -0.597056 16.7667 0.0412354ZM14.9364 12.5435C14.3225 12.6551 13.9748 12.8146 13.7419 13.0915C13.5146 13.3617 13.5467 13.4458 13.9039 13.5165C14.3474 13.6042 14.755 14.0068 14.8831 14.4834C15.0304 15.0316 15.0909 17.0519 14.9822 17.7955C14.805 19.0083 14.5161 19.2993 13.9081 18.8778C13.2343 18.4106 11.6321 15.8036 10.8861 13.9606C10.6824 13.4572 10.4382 13.1973 10.0741 13.0965C9.89271 13.0463 9.17521 13.0359 7.92517 13.0653C6.21447 13.1056 6.03544 13.1213 5.90044 13.2437C5.80628 13.329 5.75234 13.4636 5.75234 13.6132C5.75234 14.1258 7.44902 17.5087 8.804 19.6974C11.1646 23.5107 13.1519 25.2011 15.9784 25.7995C16.3965 25.8881 16.903 25.9247 17.7598 25.9282C18.8095 25.9324 18.9838 25.9169 19.1741 25.8016C19.4941 25.6077 19.5496 25.475 19.6268 24.7178C19.7158 23.8461 19.8675 23.3588 20.1354 23.0846C20.5625 22.6477 21.0732 22.8718 21.9842 23.8957C22.8721 24.8938 23.4576 25.4328 23.9356 25.6921L24.3798 25.9331H26.4574C28.6758 25.9331 28.8806 25.9071 29.2323 25.5809C29.7874 25.0663 29.0624 23.9128 26.7873 21.6911C25.5347 20.4678 25.4303 20.2918 25.637 19.7504C25.7008 19.5832 26.2638 18.7657 26.8882 17.9337C28.9491 15.1876 29.5499 14.1139 29.3876 13.4668C29.2923 13.0869 29.1417 13.0671 26.528 13.0892C24.2442 13.1086 24.1309 13.1158 23.9992 13.2504C23.9235 13.3279 23.6827 13.8035 23.4641 14.3073C22.9527 15.4866 22.4777 16.3627 21.8025 17.3723C20.6811 19.0491 20.078 19.3961 19.7067 18.5785C19.6062 18.3571 19.5909 17.9928 19.5909 15.8222C19.5909 13.5359 19.5798 13.3006 19.4627 13.0857C19.2954 12.7789 18.9064 12.61 18.1487 12.5149C17.3514 12.4149 15.5564 12.4309 14.9364 12.5435ZM0 18.0064C0 18.2583 0.0128174 18.3614 0.0283814 18.2354C0.0440158 18.1094 0.0440158 17.9033 0.0283814 17.7774C0.0128174 17.6515 0 17.7545 0 18.0064Z" fill="white" fill-opacity="0.5"/>
<path fill-rule="evenodd" clip-rule="evenodd" d="M16.7667 0.0412354C8.85478 0.571724 2.16811 6.31508 0.444454 14.0607C-0.119582 16.595 -0.119582 19.4178 0.444454 21.9521C1.95085 28.7214 7.29648 34.0696 14.0625 35.5768C16.5956 36.1411 19.417 36.1411 21.9501 35.5768C28.0939 34.2083 33.1221 29.654 35.0868 23.6784C35.6017 22.112 35.9648 20.1604 35.9648 18.9582C35.9648 18.6717 36 18.4996 36 18.382C36 18.253 36 18.1685 36 17.9359C36 17.6721 36 17.7246 36 17.5484C35.9647 17.0398 36 17.3645 35.9648 17.02C35.9648 16.729 35.916 16.1598 35.8565 15.7024C34.6252 6.24483 26.2855 -0.597056 16.7667 0.0412354ZM14.9364 12.5435C14.3225 12.6551 13.9748 12.8146 13.7419 13.0915C13.5146 13.3617 13.5467 13.4458 13.9039 13.5165C14.3474 13.6042 14.755 14.0068 14.8831 14.4834C15.0304 15.0316 15.0909 17.0519 14.9822 17.7955C14.805 19.0083 14.5161 19.2993 13.9081 18.8778C13.2343 18.4106 11.6321 15.8036 10.8861 13.9606C10.6824 13.4572 10.4382 13.1973 10.0741 13.0965C9.89271 13.0463 9.17521 13.0359 7.92517 13.0653C6.21447 13.1056 6.03544 13.1213 5.90044 13.2437C5.80628 13.329 5.75234 13.4636 5.75234 13.6132C5.75234 14.1258 7.44902 17.5087 8.804 19.6974C11.1646 23.5107 13.1519 25.2011 15.9784 25.7995C16.3965 25.8881 16.903 25.9247 17.7598 25.9282C18.8095 25.9324 18.9838 25.9169 19.1741 25.8016C19.4941 25.6077 19.5496 25.475 19.6268 24.7178C19.7158 23.8461 19.8675 23.3588 20.1354 23.0846C20.5625 22.6477 21.0732 22.8718 21.9842 23.8957C22.8721 24.8938 23.4576 25.4328 23.9356 25.6921L24.3798 25.9331H26.4574C28.6758 25.9331 28.8806 25.9071 29.2323 25.5809C29.7874 25.0663 29.0624 23.9128 26.7873 21.6911C25.5347 20.4678 25.4303 20.2918 25.637 19.7504C25.7008 19.5832 26.2638 18.7657 26.8882 17.9337C28.9491 15.1876 29.5499 14.1139 29.3876 13.4668C29.2923 13.0869 29.1417 13.0671 26.528 13.0892C24.2442 13.1086 24.1309 13.1158 23.9992 13.2504C23.9235 13.3279 23.6827 13.8035 23.4641 14.3073C22.9527 15.4866 22.4777 16.3627 21.8025 17.3723C20.6811 19.0491 20.078 19.3961 19.7067 18.5785C19.6062 18.3571 19.5909 17.9928 19.5909 15.8222C19.5909 13.5359 19.5798 13.3006 19.4627 13.0857C19.2954 12.7789 18.9064 12.61 18.1487 12.5149C17.3514 12.4149 15.5564 12.4309 14.9364 12.5435ZM0 18.0064C0 18.2583 0.0128174 18.3614 0.0283814 18.2354C0.0440158 18.1094 0.0440158 17.9033 0.0283814 17.7774C0.0128174 17.6515 0 17.7545 0 18.0064Z" stroke="url(#paint0_linear_1553_447)" stroke-width="4" mask="url(#path-1-inside-1_1553_447)"/>
</g>
<defs>
<filter id="filter0_b_1553_447" x="-20" y="-20" width="76" height="76" filterUnits="userSpaceOnUse" color-interpolation-filters="sRGB">
<feFlood flood-opacity="0" result="BackgroundImageFix"/>
<feGaussianBlur in="BackgroundImageFix" stdDeviation="10"/>
<feComposite in2="SourceAlpha" operator="in" result="effect1_backgroundBlur_1553_447"/>
<feBlend mode="normal" in="SourceGraphic" in2="effect1_backgroundBlur_1553_447" result="shape"/>
</filter>
<linearGradient id="paint0_linear_1553_447" x1="4.875" y1="6.75" x2="29.25" y2="31.125" gradientUnits="userSpaceOnUse">
<stop stop-color="#3A0184" stop-opacity="0.5"/>
<stop offset="1" stop-color="white" stop-opacity="0.3"/>
</linearGradient>
</defs>
</svg>
