<svg width="36" height="36" viewBox="0 0 36 36" fill="none" xmlns="http://www.w3.org/2000/svg">
<g filter="url(#filter0_b_1553_447)">
<path fill-rule="evenodd" clip-rule="evenodd" d="M16.7667 0.0412354C8.85478 0.571724 2.16811 6.31508 0.444454 14.0607C-0.119582 16.595 -0.119582 19.4178 0.444454 21.9521C1.95085 28.7214 7.29648 34.0696 14.0625 35.5768C16.5956 36.1411 19.417 36.1411 21.9501 35.5768C28.0939 34.2083 33.1221 29.654 35.0868 23.6784C35.6017 22.112 35.9648 20.1604 35.9648 18.9582C35.9648 18.6717 36 18.4996 36 18.382C36 18.253 36 18.1685 36 17.9359C36 17.6721 36 17.7246 36 17.5484C35.9647 17.0398 36 17.3645 35.9648 17.02C35.9648 16.729 35.916 16.1598 35.8565 15.7024C34.6252 6.24483 26.2855 -0.597056 16.7667 0.0412354ZM14.9364 12.5435C14.3225 12.6551 13.9748 12.8146 13.7419 13.0915C13.5146 13.3617 13.5467 13.4458 13.9039 13.5165C14.3474 13.6042 14.755 14.0068 14.8831 14.4834C15.0304 15.0316 15.0909 17.0519 14.9822 17.7955C14.805 19.0083 14.5161 19.2993 13.9081 18.8778C13.2343 18.4106 11.6321 15.8036 10.8861 13.9606C10.6824 13.4572 10.4382 13.1973 10.0741 13.0965C9.89271 13.0463 9.17521 13.0359 7.92517 13.0653C6.21447 13.1056 6.03544 13.1213 5.90044 13.2437C5.80628 13.329 5.75234 13.4636 5.75234 13.6132C5.75234 14.1258 7.44902 17.5087 8.804 19.6974C11.1646 23.5107 13.1519 25.2011 15.9784 25.7995C16.3965 25.8881 16.903 25.9247 17.7598 25.9282C18.8095 25.9324 18.9838 25.9169 19.1741 25.8016C19.4941 25.6077 19.5496 25.475 19.6268 24.7178C19.7158 23.8461 19.8675 23.3588 20.1354 23.0846C20.5625 22.6477 21.0732 22.8718 21.9842 23.8957C22.8721 24.8938 23.4576 25.4328 23.9356 25.6921L24.3798 25.9331H26.4574C28.6758 25.9331 28.8806 25.9071 29.2323 25.5809C29.7874 25.0663 29.0624 23.9128 26.7873 21.6911C25.5347 20.4678 25.4303 20.2918 25.637 19.7504C25.7008 19.5832 26.2638 18.7657 26.8882 17.9337C28.9491 15.1876 29.5499 14.1139 29.3876 13.4668C29.2923 13.0869 29.1417 13.0671 26.528 13.0892C24.2442 13.1086 24.1309 13.1158 23.9992 13.2504C23.9235 13.3279 23.6827 13.8035 23.4641 14.3073C22.9527 15.4866 22.4777 16.3627 21.8025 17.3723C20.6811 19.0491 20.078 19.3961 19.7067 18.5785C19.6062 18.3571 19.5909 17.9928 19.5909 15.8222C19.5909 13.5359 19.5798 13.3006 19.4627 13.0857C19.2954 12.7789 18.9064 12.61 18.1487 12.5149C17.3514 12.4149 15.5564 12.4309 14.9364 12.5435ZM0 18.0064C0 18.2583 0.0128174 18.3614 0.0283814 18.2354C0.0440158 18.1094 0.0440158 17.9033 0.0283814 17.7774C0.0128174 17.6515 0 17.7545 0 18.0064Z" fill="white" fill-opacity="0.5"/>
<path d="M34.8649 15.8315C34.9224 16.2738 34.9648 16.7932 34.9648 17.02V17.0709L34.97 17.1217C34.977 17.1905 34.9806 17.2267 34.9825 17.2466C34.9831 17.3036 34.9864 17.3837 35 17.5828V17.5832V17.5841V17.5849V17.5858V17.5866V17.5874V17.5883V17.5891V17.5899V17.5907V17.5916V17.5924V17.5932V17.594V17.5948V17.5956V17.5964V17.5972V17.5979V17.5987V17.5995V17.6003V17.601V17.6018V17.6026V17.6033V17.6041V17.6048V17.6056V17.6063V17.607V17.6078V17.6085V17.6092V17.61V17.6107V17.6114V17.6121V17.6128V17.6135V17.6142V17.6149V17.6156V17.6163V17.617V17.6177V17.6184V17.6191V17.6197V17.6204V17.6211V17.6217V17.6224V17.6231V17.6237V17.6244V17.625V17.6257V17.6263V17.627V17.6276V17.6282V17.6289V17.6295V17.6301V17.6308V17.6314V17.632V17.6326V17.6332V17.6339V17.6345V17.6351V17.6357V17.6363V17.6369V17.6375V17.6381V17.6387V17.6393V17.6399V17.6404V17.641V17.6416V17.6422V17.6428V17.6433V17.6439V17.6445V17.645V17.6456V17.6462V17.6467V17.6473V17.6478V17.6484V17.6489V17.6495V17.65V17.6506V17.6511V17.6517V17.6522V17.6528V17.6533V17.6538V17.6544V17.6549V17.6554V17.656V17.6565V17.657V17.6575V17.6581V17.6586V17.6591V17.6596V17.6601V17.6606V17.6612V17.6617V17.6622V17.6627V17.6632V17.6637V17.6642V17.6647V17.6652V17.6657V17.6662V17.6667V17.6672V17.6677V17.6682V17.6687V17.6692V17.6697V17.6702V17.6707V17.6711V17.6716V17.6721V17.6726V17.6731V17.6736V17.6741V17.6745V17.675V17.6755V17.676V17.6765V17.6769V17.6774V17.6779V17.6784V17.6789V17.6793V17.6798V17.6803V17.6808V17.6812V17.6817V17.6822V17.6827V17.6831V17.6836V17.6841V17.6845V17.685V17.6855V17.686V17.6864V17.6869V17.6874V17.6878V17.6883V17.6888V17.6892V17.6897V17.6902V17.6907V17.6911V17.6916V17.6921V17.6925V17.693V17.6935V17.694V17.6944V17.6949V17.6954V17.6958V17.6963V17.6968V17.6973V17.6977V17.6982V17.6987V17.6992V17.6996V17.7001V17.7006V17.7011V17.7015V17.702V17.7025V17.703V17.7035V17.7039V17.7044V17.7049V17.7054V17.7059V17.7063V17.7068V17.7073V17.7078V17.7083V17.7088V17.7093V17.7098V17.7103V17.7108V17.7112V17.7117V17.7122V17.7127V17.7132V17.7137V17.7142V17.7147V17.7152V17.7157V17.7163V17.7168V17.7173V17.7178V17.7183V17.7188V17.7193V17.7198V17.7204V17.7209V17.7214V17.7219V17.7224V17.723V17.7235V17.724V17.7246V17.7251V17.7256V17.7262V17.7267V17.7272V17.7278V17.7283V17.7289V17.7294V17.73V17.7305V17.7311V17.7316V17.7322V17.7327V17.7333V17.7339V17.7344V17.735V17.7356V17.7361V17.7367V17.7373V17.7379V17.7385V17.739V17.7396V17.7402V17.7408V17.7414V17.742V17.7426V17.7432V17.7438V17.7444V17.745V17.7456V17.7462V17.7469V17.7475V17.7481V17.7487V17.7494V17.75V17.7506V17.7513V17.7519V17.7525V17.7532V17.7538V17.7545V17.7551V17.7558V17.7564V17.7571V17.7578V17.7584V17.7591V17.7598V17.7605V17.7612V17.7618V17.7625V17.7632V17.7639V17.7646V17.7653V17.766V17.7667V17.7674V17.7681V17.7689V17.7696V17.7703V17.771V17.7718V17.7725V17.7732V17.774V17.7747V17.7755V17.7762V17.777V17.7778V17.7785V17.7793V17.7801V17.7808V17.7816V17.7824V17.7832V17.784V17.7848V17.7856V17.7864V17.7872V17.788V17.7888V17.7897V17.7905V17.7913V17.7921V17.793V17.7938V17.7947V17.7955V17.7964V17.7972V17.7981V17.799V17.7998V17.8007V17.8016V17.8025V17.8034V17.8043V17.8052V17.8061V17.807V17.8079V17.8088V17.8097V17.8107V17.8116V17.8125V17.8135V17.8144V17.8154V17.8163V17.8173V17.8182V17.8192V17.8202V17.8212V17.8222V17.8231V17.8241V17.8251V17.8262V17.8272V17.8282V17.8292V17.8302V17.8313V17.8323V17.8333V17.8344V17.8354V17.8365V17.8376V17.8386V17.8397V17.8408V17.8419V17.843V17.8441V17.8452V17.8463V17.8474V17.8485V17.8496V17.8507V17.8519V17.853V17.8542V17.8553V17.8565V17.8576V17.8588V17.86V17.8612V17.8624V17.8636V17.8648V17.866V17.8672V17.8684V17.8696V17.8708V17.8721V17.8733V17.8746V17.8758V17.8771V17.8783V17.8796V17.8809V17.8822V17.8835V17.8848V17.8861V17.8874V17.8887V17.89V17.8914V17.8927V17.894V17.8954V17.8967V17.8981V17.8995V17.9009V17.9022V17.9036V17.905V17.9064V17.9078V17.9093V17.9107V17.9121V17.9135V17.915V17.9164V17.9179V17.9194V17.9208V17.9223V17.9238V17.9253V17.9268V17.9283V17.9298V17.9313V17.9329V17.9344V17.9359V17.9373V17.9387V17.94V17.9414V17.9427V17.944V17.9454V17.9467V17.9481V17.9494V17.9507V17.952V17.9534V17.9547V17.956V17.9573V17.9586V17.9599V17.9612V17.9625V17.9638V17.9651V17.9664V17.9677V17.969V17.9702V17.9715V17.9728V17.9741V17.9753V17.9766V17.9778V17.9791V17.9804V17.9816V17.9829V17.9841V17.9853V17.9866V17.9878V17.989V17.9903V17.9915V17.9927V17.9939V17.9952V17.9964V17.9976V17.9988V18V18.0012V18.0024V18.0036V18.0048V18.006V18.0072V18.0084V18.0095V18.0107V18.0119V18.0131V18.0142V18.0154V18.0166V18.0177V18.0189V18.02V18.0212V18.0223V18.0235V18.0246V18.0258V18.0269V18.0281V18.0292V18.0303V18.0315V18.0326V18.0337V18.0348V18.0359V18.0371V18.0382V18.0393V18.0404V18.0415V18.0426V18.0437V18.0448V18.0459V18.047V18.0481V18.0491V18.0502V18.0513V18.0524V18.0535V18.0545V18.0556V18.0567V18.0577V18.0588V18.0599V18.0609V18.062V18.063V18.0641V18.0651V18.0662V18.0672V18.0683V18.0693V18.0703V18.0714V18.0724V18.0734V18.0745V18.0755V18.0765V18.0775V18.0785V18.0795V18.0806V18.0816V18.0826V18.0836V18.0846V18.0856V18.0866V18.0876V18.0886V18.0896V18.0906V18.0915V18.0925V18.0935V18.0945V18.0955V18.0964V18.0974V18.0984V18.0994V18.1003V18.1013V18.1023V18.1032V18.1042V18.1051V18.1061V18.107V18.108V18.1089V18.1099V18.1108V18.1118V18.1127V18.1136V18.1146V18.1155V18.1164V18.1174V18.1183V18.1192V18.1201V18.1211V18.122V18.1229V18.1238V18.1247V18.1256V18.1266V18.1275V18.1284V18.1293V18.1302V18.1311V18.132V18.1329V18.1338V18.1347V18.1356V18.1364V18.1373V18.1382V18.1391V18.14V18.1409V18.1417V18.1426V18.1435V18.1444V18.1452V18.1461V18.147V18.1478V18.1487V18.1496V18.1504V18.1513V18.1522V18.153V18.1539V18.1547V18.1556V18.1564V18.1573V18.1581V18.159V18.1598V18.1606V18.1615V18.1623V18.1632V18.164V18.1648V18.1657V18.1665V18.1673V18.1681V18.169V18.1698V18.1706V18.1714V18.1723V18.1731V18.1739V18.1747V18.1755V18.1763V18.1772V18.178V18.1788V18.1796V18.1804V18.1812V18.182V18.1828V18.1836V18.1844V18.1852V18.186V18.1868V18.1876V18.1884V18.1892V18.19V18.1907V18.1915V18.1923V18.1931V18.1939V18.1947V18.1954V18.1962V18.197V18.1978V18.1986V18.1993V18.2001V18.2009V18.2017V18.2024V18.2032V18.204V18.2047V18.2055V18.2063V18.207V18.2078V18.2086V18.2093V18.2101V18.2108V18.2116V18.2124V18.2131V18.2139V18.2146V18.2154V18.2161V18.2169V18.2176V18.2184V18.2191V18.2199V18.2206V18.2214V18.2221V18.2228V18.2236V18.2243V18.2251V18.2258V18.2265V18.2273V18.228V18.2288V18.2295V18.2302V18.231V18.2317V18.2324V18.2332V18.2339V18.2346V18.2353V18.2361V18.2368V18.2375V18.2383V18.239V18.2397V18.2404V18.2412V18.2419V18.2426V18.2433V18.244V18.2448V18.2455V18.2462V18.2469V18.2476V18.2484V18.2491V18.2498V18.2505V18.2512V18.2519V18.2526V18.2534V18.2541V18.2548V18.2555V18.2562V18.2569V18.2576V18.2583V18.259V18.2597V18.2605V18.2612V18.2619V18.2626V18.2633V18.264V18.2647V18.2654V18.2661V18.2668V18.2675V18.2682V18.2689V18.2696V18.2703V18.271V18.2717V18.2724V18.2731V18.2738V18.2745V18.2752V18.2759V18.2766V18.2773V18.278V18.2787V18.2794V18.2801V18.2808V18.2815V18.2822V18.2829V18.2836V18.2843V18.285V18.2857V18.2864V18.2871V18.2878V18.2885V18.2892V18.2899V18.2906V18.2913V18.292V18.2927V18.2934V18.2941V18.2948V18.2955V18.2961V18.2968V18.2975V18.2982V18.2989V18.2996V18.3003V18.301V18.3017V18.3024V18.3031V18.3038V18.3045V18.3052V18.3059V18.3066V18.3073V18.308V18.3087V18.3094V18.3101V18.3108V18.3115V18.3122V18.3129V18.3136V18.3143V18.315V18.3157V18.3164V18.317V18.3177V18.3184V18.3191V18.3198V18.3205V18.3212V18.322V18.3227V18.3234V18.3241V18.3248V18.3255V18.3262V18.3269V18.3276V18.3283V18.329V18.3297V18.3304V18.3311V18.3318V18.3325V18.3332V18.3339V18.3346V18.3353V18.336V18.3368V18.3375V18.3382V18.3389V18.3396V18.3403V18.341V18.3417V18.3424V18.3432V18.3439V18.3446V18.3453V18.346V18.3467V18.3475V18.3482V18.3489V18.3496V18.3503V18.351V18.3518V18.3525V18.3532V18.3539V18.3547V18.3554V18.3561V18.3568V18.3576V18.3583V18.359V18.3597V18.3605V18.3612V18.3619V18.3627V18.3634V18.3641V18.3649V18.3656V18.3663V18.3671V18.3678V18.3686V18.3693V18.37V18.3708V18.3715V18.3723V18.373V18.3733C34.9998 18.3766 34.9993 18.3829 34.9984 18.3928C34.9967 18.4128 34.9953 18.4258 34.9936 18.4427C34.992 18.4591 34.99 18.4792 34.9868 18.513C34.9764 18.6235 34.9648 18.772 34.9648 18.9582C34.9648 20.0231 34.63 21.8658 34.1368 23.366C32.2824 29.0065 27.5326 33.3088 21.7327 34.6007C19.3428 35.1331 16.6699 35.1331 14.28 34.6007C7.89281 33.178 2.84274 28.1257 1.42058 21.7349L1.42057 21.7349C1.17702 20.6405 1.04492 19.4869 1.02429 18.3282C1.04537 18.1337 1.04538 17.8792 1.02429 17.6846C1.04492 16.5259 1.17702 15.3723 1.42057 14.2779L1.42058 14.2779C3.04796 6.96494 9.36477 1.53977 16.8336 1.039L16.7667 0.0414959L16.8336 1.03899C25.8258 0.436017 33.7017 6.89775 34.8649 15.8315ZM34.8649 15.8315L35.8565 15.7024M34.8649 15.8315C34.8649 15.8315 34.8649 15.8315 34.8649 15.8315L35.8565 15.7024M35.8565 15.7024C35.916 16.1598 35.9648 16.729 35.9648 17.02L0.0646464 16.7245C0.125976 15.8183 0.252578 14.9228 0.444454 14.0607C2.16811 6.31508 8.85478 0.571724 16.7667 0.0412354C26.2855 -0.597056 34.6252 6.24483 35.8565 15.7024ZM12.9766 12.4478L12.9767 12.4477C13.435 11.903 14.065 11.6855 14.7576 11.5596C15.1607 11.4864 15.8416 11.4551 16.4672 11.4495C17.1057 11.4438 17.8071 11.4642 18.2732 11.5227M12.9766 12.4478L18.1487 12.5149M12.9766 12.4478C12.9078 12.5296 12.8039 12.6595 12.7257 12.8167C12.6516 12.9657 12.5111 13.3202 12.6694 13.7352C12.8231 14.1382 13.1509 14.3105 13.2904 14.3724C13.445 14.441 13.6031 14.4764 13.7098 14.4975L13.7099 14.4975C13.7097 14.4975 13.7098 14.4975 13.7101 14.4976C13.7142 14.4989 13.7548 14.5121 13.8091 14.5657C13.8659 14.6217 13.9028 14.6886 13.9174 14.743L13.9174 14.743C13.9558 14.8858 14.0086 15.4107 14.0291 16.0961C14.046 16.6608 14.0372 17.1917 14.0089 17.5081M12.9766 12.4478L13.9081 18.8778L14.4675 18.071M18.2732 11.5227L18.1487 12.5149M18.2732 11.5227C18.2732 11.5227 18.2732 11.5227 18.2732 11.5227L18.1487 12.5149M18.2732 11.5227C19.0203 11.6164 19.9098 11.817 20.3406 12.6069L20.3407 12.607C20.5135 12.924 20.5508 13.2295 20.5696 13.6303C20.5884 14.0311 20.5909 14.6902 20.5909 15.8222C20.5909 16.4971 20.5924 16.9879 20.5972 17.3505M18.1487 12.5149C18.9064 12.61 19.2954 12.7789 19.4627 13.0857C19.5798 13.3006 19.5909 13.5359 19.5909 15.8222C19.5909 17.9928 19.6062 18.3571 19.7067 18.5785M20.5972 17.3505C20.4868 17.4995 20.3868 17.6256 20.2964 17.7306C20.1031 17.9551 19.9981 18.0305 19.9745 18.0441C19.9741 18.0443 19.9743 18.0442 19.975 18.0439C19.9877 18.0378 20.1841 17.9433 20.44 18.0573C20.5219 18.0937 20.5755 18.1375 20.607 18.1696L19.7067 18.5785M20.5972 17.3505C20.6002 17.5748 20.6044 17.75 20.6102 17.8893C20.6179 18.071 20.6282 18.1614 20.6331 18.1976C20.6344 18.2001 20.6356 18.2022 20.6367 18.2041M20.5972 17.3505C20.7107 17.1974 20.8351 17.02 20.9713 16.8163C21.6112 15.8596 22.0578 15.0367 22.5467 13.9094L22.5467 13.9093C22.6628 13.6418 22.786 13.3788 22.8931 13.1673C22.9462 13.0624 22.9994 12.962 23.0488 12.8767L23.0519 12.8712C23.0821 12.819 23.1678 12.6704 23.2842 12.5513L23.2845 12.551C23.404 12.4288 23.5741 12.2954 23.8352 12.2152C24.0205 12.1583 24.2194 12.1397 24.393 12.1286C24.7584 12.1053 25.3946 12.0988 26.5195 12.0892C27.7842 12.0785 28.5684 12.0745 29.0331 12.1359C29.26 12.1658 29.6024 12.2301 29.8946 12.465C30.2319 12.7361 30.3235 13.0878 30.3575 13.2234L30.3576 13.2236C30.541 13.9551 30.2404 14.6934 29.8443 15.4014C29.4205 16.1587 28.7181 17.1614 27.6881 18.534L27.688 18.534C27.3827 18.9408 27.0939 19.3421 26.8759 19.6586C26.7665 19.8175 26.6787 19.9495 26.6169 20.0473C26.6129 20.0536 26.6091 20.0597 26.6055 20.0654M19.7067 18.5785L20.607 18.1696M19.7067 18.5785C20.078 19.3961 20.6811 19.0491 21.8025 17.3723C22.4777 16.3627 22.9527 15.4866 23.4641 14.3073L20.607 18.1696M14.4787 12.6504C14.3568 12.6004 14.2295 12.5615 14.098 12.5355M14.4787 12.6504L14.098 12.5355M14.4787 12.6504C14.4259 12.6664 14.3758 12.6832 14.3282 12.7009C14.2238 12.5993 14.1247 12.5545 14.1015 12.5442C14.0999 12.5435 14.0983 12.5428 14.0967 12.5421M14.4787 12.6504L14.098 12.5355M14.098 12.5355L14.0967 12.5421M14.0967 12.5421L14.0379 12.8392C14.0379 12.8392 14.0379 12.8392 14.0379 12.8392L14.0967 12.5421M14.0967 12.5421C14.0967 12.5421 14.0967 12.5421 14.0967 12.5421M14.0967 12.5421L14.098 12.5355C14.0652 12.529 14.0516 12.5252 14.0517 12.5252C14.0518 12.5253 14.0694 12.5303 14.0967 12.5421ZM14.4675 18.071C14.5026 18.0783 14.525 18.0871 14.5331 18.0906C14.526 18.087 14.5079 18.0768 14.4779 18.056M14.4675 18.071C14.4675 18.071 14.4675 18.0709 14.4674 18.0709L14.4778 18.056C14.4778 18.056 14.4779 18.056 14.4779 18.056M14.4675 18.071L14.4779 18.056M14.4779 18.056C14.4784 18.0564 14.4782 18.0562 14.4772 18.0553C14.4704 18.0498 14.4294 18.016 14.3522 17.9318C14.2895 17.8635 14.2163 17.7767 14.1337 17.6715C14.1336 17.6715 14.1336 17.6715 14.1336 17.6714C14.1079 17.6387 14.0813 17.6042 14.0538 17.5679C14.039 17.5483 14.024 17.5284 14.0089 17.5081M14.0089 17.5081C13.7879 17.2108 13.5361 16.8344 13.2762 16.4115C12.7185 15.5041 12.1598 14.442 11.8131 13.5855L14.0089 17.5081ZM20.607 18.1696C20.616 18.1788 20.6232 18.187 20.6287 18.1937C20.6337 18.2082 20.6359 18.2176 20.636 18.2175C20.6361 18.2175 20.6351 18.2122 20.6334 18.1997C20.6346 18.2013 20.6357 18.2028 20.6367 18.2041M20.607 18.1696L25.637 19.7504C25.4303 20.2918 25.5347 20.4678 26.7873 21.6911M20.6367 18.2041C20.6408 18.2114 20.643 18.2145 20.6431 18.2142C20.6432 18.2139 20.6411 18.2102 20.6367 18.2041ZM26.6055 20.0654C26.561 20.0104 26.5372 19.9755 26.5251 19.9551C26.5238 19.953 26.5232 19.952 26.5232 19.952C26.5228 19.9522 26.5516 20.0092 26.5533 20.1001C26.5533 20.1001 26.5533 20.1002 26.5533 20.1002C26.5533 20.1026 26.5534 20.105 26.5534 20.1074C26.5535 20.1498 26.5467 20.1777 26.5468 20.1778C26.5469 20.1778 26.5494 20.1678 26.5574 20.1449C26.5646 20.1325 26.5795 20.107 26.6055 20.0654ZM26.6055 20.0654C26.6457 20.115 26.7028 20.1811 26.7832 20.2679C26.9473 20.4447 27.1726 20.6696 27.486 20.9756L26.7873 21.6911M26.7873 21.6911L27.486 20.9756C28.6283 22.0911 29.4535 23.0053 29.9178 23.744C30.147 24.1086 30.3464 24.5195 30.3975 24.951C30.4558 25.444 30.313 25.9426 29.9122 26.3142M26.7873 21.6911C29.0624 23.9128 29.7874 25.0663 29.2323 25.5809M29.9122 26.3142L24.3798 25.9331H26.4574C28.6758 25.9331 28.8806 25.9071 29.2323 25.5809M29.9122 26.3142L29.2323 25.5809M29.9122 26.3142C29.9122 26.3142 29.9122 26.3142 29.9122 26.3142L29.2323 25.5809M29.9122 26.3142C29.7924 26.4253 29.6253 26.5675 29.3858 26.6794C29.154 26.7878 28.9141 26.8405 28.6707 26.8713C28.2199 26.9286 27.5367 26.9331 26.4574 26.9331H24.3798H24.1261L23.903 26.8121L23.4588 26.5711L23.4587 26.5711C22.8098 26.2191 22.1218 25.5549 21.237 24.5604L21.237 24.5604C21.0399 24.3388 20.8781 24.1749 20.7452 24.0568M29.9122 26.3142L20.7452 24.0568M20.7452 24.0568C20.753 24.0273 20.7609 23.9999 20.7688 23.9745C20.8156 23.8242 20.8524 23.7815 20.8525 23.7814C20.8526 23.7814 20.8521 23.782 20.8511 23.7831C20.851 23.7831 20.8509 23.7832 20.8507 23.7834L20.1354 23.0846C20.5625 22.6477 21.0732 22.8718 21.9842 23.8957L20.7452 24.0568ZM20.7452 24.0568C20.7355 24.0481 20.7259 24.0397 20.7164 24.0315C20.5741 23.9083 20.4974 23.8672 20.4766 23.8581C20.4759 23.8578 20.4756 23.8577 20.4756 23.8577C20.4757 23.8575 20.5526 23.8876 20.6725 23.8636C20.7846 23.8412 20.8439 23.7895 20.8505 23.7836L5.2288 12.5028C4.88819 12.8116 4.75234 13.2361 4.75234 13.6132C4.75234 13.8614 4.83427 14.1146 4.88004 14.2508C4.9407 14.4312 5.02332 14.6404 5.1185 14.864C5.3099 15.3136 5.5743 15.8732 5.87618 16.4751C6.47996 17.6789 7.25727 19.0987 7.95375 20.2238M20.7452 24.0568C20.6998 24.2288 20.657 24.4727 20.6217 24.8193C20.5865 25.1642 20.5453 25.5425 20.4142 25.8564C20.2339 26.288 19.9359 26.5093 19.6923 26.6568L19.6922 26.6569C19.4345 26.813 19.1863 26.8782 18.8784 26.9057C18.6235 26.9285 18.266 26.9303 17.7558 26.9282H17.7557C16.8844 26.9246 16.2936 26.8885 15.7712 26.7779M15.7712 26.7779L15.9771 25.8053L15.7711 26.7778C15.7712 26.7778 15.7712 26.7779 15.7712 26.7779ZM15.7712 26.7779C12.5611 26.0982 10.3801 24.1434 7.95375 20.2238M7.95375 20.2238L8.7996 19.7001L7.95373 20.2238C7.95374 20.2238 7.95374 20.2238 7.95375 20.2238ZM11.8131 13.5854C11.5463 12.9262 11.1195 12.3484 10.3409 12.1328L10.3407 12.1327C10.1874 12.0903 10.0174 12.0762 9.90486 12.0686C9.76788 12.0594 9.60269 12.0539 9.4149 12.0512C9.03799 12.0457 8.53156 12.0508 7.90167 12.0656L7.90161 12.0656C7.0616 12.0854 6.54971 12.0998 6.23417 12.1276C5.925 12.1548 5.55534 12.2069 5.22894 12.5027L11.8131 13.5854Z" stroke="url(#paint0_linear_1553_447)" stroke-width="2"/>
</g>
<defs>
<filter id="filter0_b_1553_447" x="-20" y="-20" width="76" height="76" filterUnits="userSpaceOnUse" color-interpolation-filters="sRGB">
<feFlood flood-opacity="0" result="BackgroundImageFix"/>
<feGaussianBlur in="BackgroundImageFix" stdDeviation="10"/>
<feComposite in2="SourceAlpha" operator="in" result="effect1_backgroundBlur_1553_447"/>
<feBlend mode="normal" in="SourceGraphic" in2="effect1_backgroundBlur_1553_447" result="shape"/>
</filter>
<linearGradient id="paint0_linear_1553_447" x1="4.875" y1="6.75" x2="29.25" y2="31.125" gradientUnits="userSpaceOnUse">
<stop stop-color="#3A0184" stop-opacity="0.5"/>
<stop offset="1" stop-color="white" stop-opacity="0.3"/>
</linearGradient>
</defs>
</svg>
