<svg width="65" height="36" viewBox="0 0 65 36" fill="none" xmlns="http://www.w3.org/2000/svg">
<g filter="url(#filter0_b_1965_48)">
<rect x="1" y="1" width="63" height="34" rx="17" stroke="white" stroke-opacity="0.5" stroke-width="2"/>
<rect x="1" y="1" width="63" height="34" rx="17" stroke="url(#paint0_linear_1965_48)" stroke-width="2"/>
</g>
<g filter="url(#filter1_b_1965_48)">
<circle cx="18" cy="18" r="15" fill="url(#paint1_linear_1965_48)" fill-opacity="0.5"/>
</g>
<path fill-rule="evenodd" clip-rule="evenodd" d="M12.8856 5.15332C11.471 5.78125 9.93296 6.87174 8.79394 8.05448C6.88974 10.0317 5.65129 12.4652 5.17229 15.1706C5.00927 16.0913 4.94634 18.0564 5.05202 18.9235C5.62662 23.6371 8.39178 27.5768 12.5618 29.6232C17.6491 32.1199 23.8271 31.159 27.8626 27.2436C28.6701 26.4602 29.2731 25.7416 29.8177 24.914C30.2501 24.2567 30.915 22.9888 30.984 22.6894C31.0658 22.3353 30.8236 21.8492 30.476 21.6694C30.1845 21.5187 29.8631 21.5568 29.1641 21.825C23.6319 23.9475 17.3047 21.5194 14.6676 16.262C13.7912 14.5149 13.4107 12.919 13.4107 10.9907C13.4107 9.46941 13.6279 8.26324 14.1561 6.85089C14.4558 6.04947 14.4833 5.74922 14.2839 5.45615C13.955 4.97293 13.5095 4.87644 12.8856 5.15332Z" fill="#1A1A18"/>
<defs>
<filter id="filter0_b_1965_48" x="-20" y="-20" width="105" height="76" filterUnits="userSpaceOnUse" color-interpolation-filters="sRGB">
<feFlood flood-opacity="0" result="BackgroundImageFix"/>
<feGaussianBlur in="BackgroundImageFix" stdDeviation="10"/>
<feComposite in2="SourceAlpha" operator="in" result="effect1_backgroundBlur_1965_48"/>
<feBlend mode="normal" in="SourceGraphic" in2="effect1_backgroundBlur_1965_48" result="shape"/>
</filter>
<filter id="filter1_b_1965_48" x="-17" y="-17" width="70" height="70" filterUnits="userSpaceOnUse" color-interpolation-filters="sRGB">
<feFlood flood-opacity="0" result="BackgroundImageFix"/>
<feGaussianBlur in="BackgroundImageFix" stdDeviation="10"/>
<feComposite in2="SourceAlpha" operator="in" result="effect1_backgroundBlur_1965_48"/>
<feBlend mode="normal" in="SourceGraphic" in2="effect1_backgroundBlur_1965_48" result="shape"/>
</filter>
<linearGradient id="paint0_linear_1965_48" x1="8.80208" y1="6.75" x2="29.4641" y2="44.0564" gradientUnits="userSpaceOnUse">
<stop stop-color="#3A0184" stop-opacity="0.5"/>
<stop offset="1" stop-color="#83EEFF"/>
</linearGradient>
<linearGradient id="paint1_linear_1965_48" x1="7.5" y1="8.5" x2="22.5" y2="23.5" gradientUnits="userSpaceOnUse">
<stop stop-color="#3A0184" stop-opacity="0.5"/>
<stop offset="1" stop-color="#83EEFF"/>
</linearGradient>
</defs>
</svg>
